<svg width="78" height="19" fill="none" xmlns="http://www.w3.org/2000/svg"><g clip-path="url(#clip0_10206_332601)" fill-rule="evenodd" clip-rule="evenodd"><path d="M78 6.098l-.12.323c-.121.322-.207.512-.323.772-.074.162-.158.35-.276.625l-2.48 6.25c-.434 1.112-1.3 1.75-2.368 1.75a3.07 3.07 0 01-1.051-.216l-.223-.096.1-.227c.345-.749.567-.99 1.287-1.05.273-.022.57-.348.78-.855l.106-.26-2.247-5.301c-.121-.284-.21-.502-.3-.725-.09-.222-.172-.409-.28-.66l-.14-.333h1.106c.64 0 .923.2 1.169.836 0 0 1.235 3.116 1.328 3.343.081.256.147.516.198.78h.057c.043-.263.101-.522.175-.777.098-.283 1.199-3.334 1.199-3.334.23-.625.546-.844 1.197-.844L78 6.098zm-13.83-.082c-.752 0-1.68.657-1.884 1.497V7.01c0-.444-.262-.912-1.087-.912h-.616v7.284h1.75v-3.02a3.93 3.93 0 01.145-1.157c.262-.87.911-1.43 1.65-1.43.111 0 .222.011.33.033l.29.07V6.076l-.2-.03a2.926 2.926 0 00-.379-.031zm5.073 0c-.748 0-1.674.657-1.88 1.497V7.01c0-.444-.259-.912-1.086-.912h-.619v7.284h1.75v-3.02a4.01 4.01 0 01.147-1.157c.262-.87.91-1.43 1.651-1.43.11 0 .221.01.33.033l.287.07V6.076l-.197-.03a2.964 2.964 0 00-.383-.031zm-36.769.166c-2.18 0-3.825 1.63-3.825 3.786 0 2.157 1.645 3.819 3.825 3.819 2.153 0 3.839-1.679 3.839-3.819 0-2.162-1.648-3.786-3.84-3.786zm0 6c-1.168 0-2.054-.95-2.054-2.209 0-1.259.883-2.184 2.054-2.184 1.17 0 2.064.938 2.064 2.184 0 1.246-.888 2.21-2.064 2.21zm-7.926-6a3.07 3.07 0 00-2.063.76h-.051c.032-.267.049-.536.05-.805V4.753c0-.741-.356-1.1-1.08-1.1h-.67v6.383c.087 2.32 1.507 3.757 3.709 3.757 2.028 0 3.558-1.636 3.558-3.805 0-2.17-1.484-3.806-3.453-3.806zm-.292 6.012c-1.124 0-1.841-1.11-1.841-2.184 0-1.63 1.026-2.21 1.867-2.21.967 0 1.956.824 1.956 2.199s-1.008 2.195-1.982 2.195zm23.93-6.012c-.756-.01-1.49.26-2.063.76h-.05c.031-.267.048-.536.05-.805V4.753c0-.741-.353-1.1-1.079-1.1h-.668v6.383c.086 2.32 1.506 3.757 3.704 3.757 2.03 0 3.56-1.636 3.56-3.805 0-2.17-1.484-3.805-3.454-3.805v-.001zm-.291 6.012c-1.12 0-1.845-1.108-1.845-2.183 0-1.63 1.027-2.21 1.868-2.21.966 0 1.958.824 1.958 2.2 0 1.375-1.005 2.193-1.981 2.193z" fill="#E51A4B"/><path d="M42.464 12.033l-1.422-2.294 1.209-1.842c.22-.336.392-.575.575-.83.132-.183.266-.366.417-.59l.255-.367h-1.313c-.742 0-1.018.162-1.414.83 0 0-.534.896-.604 1.022-.07.125-.254.54-.258.55h-.048s-.165-.385-.264-.55l-.614-1.024c-.42-.666-.698-.828-1.412-.828h-1.323l.267.374c.318.457.501.725.776 1.128l1.408 2.132-1.197 2.008a24.39 24.39 0 01-.576.829c-.134.186-.267.367-.42.588l-.252.368h1.318c.742 0 1.02-.16 1.416-.829 0 0 .531-.893.604-1.02.072-.127.255-.54.26-.55h.049s.163.383.262.55l.615 1.024c.42.665.696.825 1.41.825h1.315l-.268-.375a68.346 68.346 0 01-.77-1.13zm15.844-.479a1.364 1.364 0 00-.56.167l-.027.011c-.371.172-.823.384-1.358.384-.911 0-2.09-.57-2.194-1.82h5.036c.03-.257.047-.516.05-.775 0-2.048-1.336-3.426-3.313-3.426-2.11 0-3.589 1.567-3.589 3.805 0 2.199 1.752 3.805 3.946 3.805a3.914 3.914 0 001.522-.288 3.95 3.95 0 001.296-.857l.12-.122-.07-.154c-.164-.337-.4-.733-.858-.733l-.001.003zm-2.242-4.067c.745 0 1.529.465 1.529 1.452h-3.41c.116-.756.876-1.452 1.88-1.452zM7.12 14.429a1.939 1.939 0 011.379-.58 1.92 1.92 0 011.377.58 2 2 0 01.574 1.405 2.002 2.002 0 01-1.205 1.836 1.914 1.914 0 01-2.124-.432 2.014 2.014 0 010-2.81zm3.276-3.334a2.013 2.013 0 000 2.809 1.945 1.945 0 001.379.58 1.926 1.926 0 001.379-.58 2.012 2.012 0 000-2.81 1.94 1.94 0 00-1.38-.58 1.923 1.923 0 00-1.378.58zm3.281-3.339a2.005 2.005 0 00-.572 1.405 2.004 2.004 0 001.203 1.837 1.915 1.915 0 002.127-.432 2.01 2.01 0 00.57-1.405 2.01 2.01 0 00-.57-1.405 1.932 1.932 0 00-1.379-.584 1.915 1.915 0 00-1.379.584zm-9.83 3.339a2.005 2.005 0 000 2.809 1.944 1.944 0 001.379.58 1.926 1.926 0 001.379-.58 2.012 2.012 0 000-2.81 1.942 1.942 0 00-1.38-.58 1.923 1.923 0 00-1.378.58zM.572 7.756a2.002 2.002 0 000 2.81 1.932 1.932 0 001.378.584 1.915 1.915 0 001.378-.584 2.002 2.002 0 00-.631-3.242 1.914 1.914 0 00-2.125.432zm6.549 0a2.01 2.01 0 000 2.81 1.931 1.931 0 001.38.585 1.915 1.915 0 001.38-.585 2.01 2.01 0 00-.001-2.81 1.939 1.939 0 00-1.38-.582 1.921 1.921 0 00-1.379.582zM3.847 4.42a2.005 2.005 0 000 2.809 1.94 1.94 0 001.379.581 1.922 1.922 0 001.379-.581 2.012 2.012 0 00-.631-3.242 1.914 1.914 0 00-2.127.432zm6.549 0a2.012 2.012 0 000 2.809 1.94 1.94 0 001.379.581 1.922 1.922 0 001.379-.581 2.012 2.012 0 00-.632-3.242 1.915 1.915 0 00-2.126.432z" fill="#E51A4B"/><path d="M7.12 1.079A1.939 1.939 0 018.5.497a1.921 1.921 0 011.38.582 2.008 2.008 0 010 2.809 1.94 1.94 0 01-1.38.582 1.923 1.923 0 01-1.38-.582 2.011 2.011 0 010-2.809z" fill="#B0CB1F"/><path d="M22.586 16.595v1.78h-.306v-1.497h-.798v1.497h-.307v-1.78h1.41zm.871 0v1.176l1.197-1.313v1.917h-.302v-1.188L23.155 18.5v-1.905h.302zm3.145.499a.695.695 0 00-.547-.266.655.655 0 00-.433.21.668.668 0 000 .905.655.655 0 00.433.21.731.731 0 00.563-.28v.367a.926.926 0 01-.554.184.918.918 0 01-.739-.391.944.944 0 01.455-1.435.918.918 0 01.826.116l-.004.38zm.472-.504h.303v.684h.312a.697.697 0 01.53.174.518.518 0 01.134.377.544.544 0 01-.157.398c-.148.145-.339.149-.512.149h-.61V16.59zm.585 1.508a.543.543 0 00.272-.041.26.26 0 00.113-.226.246.246 0 00-.11-.225.471.471 0 00-.27-.051h-.285v.55l.28-.007zm1.32-1.64l.724 1.45.707-1.45.421 1.917h-.314l-.23-1.101-.593 1.226-.6-1.226-.226 1.101h-.312l.422-1.917zm3.561.132h.305v1.782h-.305v-.245a.726.726 0 01-.598.302c-.44 0-.845-.316-.845-.944 0-.628.402-.93.845-.93a.707.707 0 01.598.295v-.26zm-1.135.89c0 .382.21.67.571.67s.581-.314.581-.665c0-.46-.31-.66-.58-.66-.302.003-.572.225-.572.659v-.004zm3.295-.885v1.176l1.199-1.313v1.917h-.303v-1.188L34.398 18.5v-1.905h.303zm4.16 0v1.78h-.304v-1.497h-.8v1.497h-.304v-1.78h1.407zm.462.895a.946.946 0 01.57-.87.918.918 0 011.011.2.94.94 0 01.205 1.021.92.92 0 01-.856.582.89.89 0 01-.664-.266.91.91 0 01-.263-.672l-.003.005zm.313 0a.63.63 0 00.162.47.617.617 0 00.699.148.617.617 0 00.335-.365.63.63 0 00.033-.253c0-.436-.295-.662-.614-.662a.6.6 0 00-.584.41.618.618 0 00-.03.252zm3.373-.396a.697.697 0 00-.548-.266.655.655 0 00-.432.21.668.668 0 000 .905.655.655 0 00.432.21.728.728 0 00.563-.28v.367a.926.926 0 01-.554.184.918.918 0 01-.739-.391.943.943 0 01.455-1.435.918.918 0 01.826.116l-.003.38zm.474-.504h.306v.684h.31a.702.702 0 01.532.174c.092.103.14.238.135.377a.553.553 0 01-.156.398c-.15.145-.341.149-.514.149h-.613V16.59zm.587 1.508a.535.535 0 00.27-.047.251.251 0 00.112-.226.247.247 0 00-.108-.225.468.468 0 00-.269-.052h-.286v.55h.282zm.906-1.507h.304v1.78h-.304v-1.78zm2.197 1.784h-.303v-1.497h-.622v.802a.764.764 0 01-.135.515.526.526 0 01-.512.18v-.282a.392.392 0 00.066.009.239.239 0 00.219-.116.56.56 0 00.058-.306v-1.09h1.23v1.785zm.876-1.78v.73l.709-.73h.37l-.757.794.85.986h-.395l-.682-.779-.095.088v.691h-.3v-1.78h.3zm1.78 0v1.176l1.195-1.313v1.917h-.302v-1.188L49.524 18.5v-1.905h.304z" fill="#E51A4B"/></g><defs><clipPath id="clip0_10206_332601"><path fill="#fff" transform="translate(0 .5)" d="M0 0h78v18H0z"/></clipPath></defs></svg>