<svg width="24" height="24" fill="none" xmlns="http://www.w3.org/2000/svg"><path d="M7.86 20.14V6h10.791v14.14H7.861z" fill="#fff" stroke="#000" stroke-linecap="round"/><path d="M5 23V8.86h7.442l3.349 3.35V23H5z" fill="#fff"/><path d="M5 8.86v-.5h-.5v.5H5zM5 23h-.5v.5H5V23zm10.79 0v.5h.5V23h-.5zM12.443 8.86l.353-.353a.5.5 0 00-.353-.147v.5zm0 3.35h-.5v.5h.5v-.5zm3.349 0h.5a.5.5 0 00-.147-.354l-.353.353zM4.5 8.86V23h1V8.86h-1zM5 23.5h10.79v-1H5v1zm7.442-15.14H5v1h7.442v-1zm-.5.5v3.35h1V8.86h-1zM16.29 23V12.21h-1V23h1zm-3.85-10.29h3.35v-1h-3.35v1zm-.353-3.496l3.35 3.349.706-.707-3.349-3.35-.707.708z" fill="#000"/></svg>