<?xml version="1.0" encoding="UTF-8"?><!DOCTYPE svg PUBLIC "-//W3C//DTD SVG 1.1//EN" "http://www.w3.org/Graphics/SVG/1.1/DTD/svg11.dtd"><svg xmlns="http://www.w3.org/2000/svg" xmlns:xlink="http://www.w3.org/1999/xlink"><defs><clipPath id="clip0_4206_12582"><path d="M0 0h16v16H0z"/></clipPath><clipPath id="clip0_4206_12577"><path d="M0 0h16v16H0z"/></clipPath><clipPath id="clip0_13064_462189"><path d="M0 0h212v25H0z"/></clipPath><clipPath id="clip0_4206_2852"><path d="M0 0h16.296v16H0z"/></clipPath><clipPath id="clip0_4206_12585"><path d="M0 0h16v16H0z"/></clipPath></defs><symbol id="about-delivery" viewBox="0 0 41 32"><mask id="a"><path fill-rule="evenodd" clip-rule="evenodd" d="M1.5 0h-1v27h5.083a6.002 6.002 0 0011.834 0h5.166a6.002 6.002 0 0011.834 0H40.5v-9.9l-.401-.3L27.5 7.374V0h-26zm26 9.872v10.211A6.002 6.002 0 0134.417 25H38.5v-6.9l-11-8.228zm-2 10.93V2h-23v23h3.083a6.002 6.002 0 0111.834 0h5.166a6.005 6.005 0 012.917-4.197zM7.5 26a4 4 0 118 0 4 4 0 01-8 0zm21-4a4 4 0 100 8 4 4 0 000-8z"/></mask><path fill-rule="evenodd" clip-rule="evenodd" d="M1.5 0h-1v27h5.083a6.002 6.002 0 0011.834 0h5.166a6.002 6.002 0 0011.834 0H40.5v-9.9l-.401-.3L27.5 7.374V0h-26zm26 9.872v10.211A6.002 6.002 0 0134.417 25H38.5v-6.9l-11-8.228zm-2 10.93V2h-23v23h3.083a6.002 6.002 0 0111.834 0h5.166a6.005 6.005 0 012.917-4.197zM7.5 26a4 4 0 118 0 4 4 0 01-8 0zm21-4a4 4 0 100 8 4 4 0 000-8z"/><path d="M.5 0v-2h-2v2h2zm0 27h-2v2h2v-2zm5.083 0l1.972-.33-.28-1.67H5.583v2zm11.834 0v-2h-1.692l-.28 1.67 1.972.33zm5.166 0l1.972-.33-.28-1.67h-1.692v2zm11.834 0v-2h-1.692l-.28 1.67 1.972.33zm6.083 0v2h2v-2h-2zm0-9.9h2v-1.002l-.802-.6-1.198 1.601zm-.401-.3l-1.198 1.6 1.198-1.6zM27.5 7.374h-2v1.001l.802.6L27.5 7.375zM27.5 0h2v-2h-2v2zm0 9.872l1.198-1.601L25.5 5.878v3.994h2zm0 10.211h-2v2.363l2.33-.39-.33-1.973zM34.417 25l-1.972.33.28 1.67h1.692v-2zm4.083 0v2h2v-2h-2zm0-6.9h2v-1l-.802-.6-1.198 1.6zm-13 2.703l1.002 1.73.998-.577v-1.153h-2zM25.5 2h2V0h-2v2zm-23 0V0h-2v2h2zm0 23h-2v2h2v-2zm3.083 0v2h1.692l.28-1.67L5.583 25zm11.834 0l-1.972.33.28 1.67h1.692v-2zm5.166 0v2h1.692l.28-1.67-1.972-.33zM.5 2h1v-4h-1v4zm2-1V0h-4v1h4zm0 25V1h-4v25h4zm0 1v-1h-4v1h4zm-1-2h-1v4h1v-4zm4.083 0H1.5v4h4.083v-4zm5.917 5a4.002 4.002 0 01-3.945-3.33l-3.944.66A8.002 8.002 0 0011.5 34v-4zm3.945-3.33A4.002 4.002 0 0111.5 30v4a8.002 8.002 0 007.89-6.67l-3.945-.66zM22.583 25h-5.166v4h5.166v-4zm5.917 5a4.002 4.002 0 01-3.945-3.33l-3.945.66A8.002 8.002 0 0028.5 34v-4zm3.945-3.33A4.002 4.002 0 0128.5 30v4a8.002 8.002 0 007.89-6.67l-3.945-.66zM39.5 25h-5.083v4H39.5v-4zm1 0h-1v4h1v-4zm-2 1v1h4v-1h-4zm0-8.4V26h4v-8.4h-4zm0-.5v.5h4v-.5h-4zm.401 1.3l.401.3 2.396-3.202-.401-.3-2.396 3.203zM26.302 8.977l12.599 9.425 2.396-3.203-12.599-9.425-2.396 3.203zM25.5 1v6.375h4V1h-4zm0-1v1h4V0h-4zm1 2h1v-4h-1v4zm-25 0h25v-4h-25v4zm24 7.872v10.211h4V9.873h-4zm2.33 12.183A4.04 4.04 0 0128.5 22v-4c-.452 0-.897.038-1.33.11l.66 3.945zM28.5 22c1.98 0 3.627 1.44 3.945 3.33l3.944-.66A8.002 8.002 0 0028.5 18v4zm5.917 5H38.5v-4h-4.083v4zm6.083-2v-6.9h-4V25h4zm-.802-8.5l-11-8.23-2.396 3.204 11 8.228 2.396-3.203zM27.5 20.802V2h-4v18.803h4zM25.5 0h-23v4h23V0zM.5 2v23h4V2h-4zm2 25h3.083v-4H2.5v4zm5.055-1.67A4.002 4.002 0 0111.5 22v-4a8.002 8.002 0 00-7.89 6.67l3.945.66zM11.5 22c1.98 0 3.627 1.44 3.945 3.33l3.945-.66A8.002 8.002 0 0011.5 18v4zm5.917 5h5.166v-4h-5.166v4zm7.138-1.67c.2-1.19.93-2.208 1.947-2.796l-2.003-3.462a8.006 8.006 0 00-3.889 5.597l3.945.662zM11.5 20a6 6 0 00-6 6h4a2 2 0 012-2v-4zm6 6a6 6 0 00-6-6v4a2 2 0 012 2h4zm-6 6a6 6 0 006-6h-4a2 2 0 01-2 2v4zm-6-6a6 6 0 006 6v-4a2 2 0 01-2-2h-4zm21 0a2 2 0 012-2v-4a6 6 0 00-6 6h4zm2 2a2 2 0 01-2-2h-4a6 6 0 006 6v-4zm2-2a2 2 0 01-2 2v4a6 6 0 006-6h-4zm-2-2a2 2 0 012 2h4a6 6 0 00-6-6v4z" mask="url(#a)"/></symbol><symbol id="app-google" viewBox="0 0 22 24"><path fill-rule="evenodd" clip-rule="evenodd" d="M0 1.644v20.714C0 23.08.417 23.703 1.022 24L13.01 11.998 1.027 0A1.828 1.828 0 000 1.644zm3.709 21.734l13.102-7.574-2.77-2.773L3.71 23.378zm17.174-12.829c.436.334.717.86.717 1.452 0 .583-.273 1.102-.697 1.437l-2.783 1.609-3.046-3.05 3.044-3.047 2.765 1.599zM16.81 8.194L3.717.625l10.325 10.339 2.767-2.77z"/></symbol><symbol id="app-iphone" viewBox="0 0 20 24"><path fill-rule="evenodd" clip-rule="evenodd" d="M14.76 0c-1.224.05-2.708.804-3.586 1.818-.79.9-1.478 2.336-1.292 3.713 1.367.106 2.76-.684 3.61-1.698.85-1.016 1.425-2.425 1.268-3.833zm-.346 23.968c1.66-.03 2.71-1.485 3.726-2.948 1.113-1.602 1.604-3.156 1.678-3.388l.008-.026-.006-.002c-.16-.064-3.23-1.295-3.26-4.851-.03-2.937 2.346-4.398 2.607-4.559l.02-.012c-1.43-2.061-3.658-2.344-4.452-2.376-1.159-.116-2.284.32-3.202.678-.585.226-1.085.42-1.46.42-.415 0-.93-.2-1.507-.426-.756-.296-1.62-.634-2.512-.618-2.065.03-3.97 1.185-5.034 3.009-2.148 3.673-.55 9.115 1.541 12.093 1.025 1.456 2.242 3.096 3.844 3.037.715-.029 1.224-.242 1.75-.463.609-.256 1.24-.52 2.24-.52.952 0 1.555.256 2.134.503.554.237 1.087.464 1.885.449z"/></symbol><symbol id="arrow-bottom" viewBox="0 0 14 10"><path d="M7.003 6.285L1.765 1.048a.76.76 0 00-.541-.224.76.76 0 00-.542.224l-.458.459A.76.76 0 000 2.048c0 .205.08.397.224.542L6.46 8.826a.76.76 0 00.543.223.76.76 0 00.543-.223l6.23-6.23A.76.76 0 0014 2.053a.76.76 0 00-.224-.542l-.458-.459a.767.767 0 00-1.083 0L7.003 6.285z"/></symbol><symbol id="arrow-down" viewBox="0 0 24 24"><path fill-rule="evenodd" clip-rule="evenodd" d="M12.568 4.5V4l-1 .002v.5l.022 13.455-4.51-5.075-.333-.373-.747.664.332.374 5.362 6.032.374.42.374-.42 5.362-6.032.332-.374-.747-.664-.332.373-4.467 5.025L12.568 4.5z"/></symbol><symbol id="arrow-pagination" viewBox="0 0 8 12"><path d="M7 1L2 6.2 7 11" stroke="currentColor" stroke-width="2" stroke-linecap="round"/></symbol><symbol id="arrow-right-new" viewBox="0 0 24 24"><path fill-rule="evenodd" clip-rule="evenodd" d="M12.882 16.989l-.374.332.665.747.373-.332 6.033-5.362L20 12l-.42-.374-6.033-5.362-.373-.332-.665.747.374.332 5.05 4.489H4v1h13.932l-5.05 4.489z"/></symbol><symbol id="banner-chevron-right" viewBox="0 0 24 24"><path fill-rule="evenodd" clip-rule="evenodd" d="M9.74 20l.336-.37 6.635-7.293.306-.336-.306-.337-6.635-7.293L9.74 4 9 4.674l.336.37L15.666 12l-6.33 6.956-.336.37.74.673z"/></symbol><symbol id="basket" viewBox="0 0 19 18"><path d="M17.643 16.115a1.5 1.5 0 01-1.495 1.385H2.852a1.5 1.5 0 01-1.496-1.385l-.692-9A1.5 1.5 0 012.16 5.5h14.68a1.5 1.5 0 011.496 1.615l-.692 9z" stroke="#666"/><path d="M5 9c0-2.667.9-8 4.5-8S14 6.333 14 9" stroke="#666" stroke-linecap="round" stroke-linejoin="round"/></symbol><symbol id="bonus-stroke-fill" viewBox="0 0 24 24"><path fill-rule="evenodd" clip-rule="evenodd" d="M12 24c6.627 0 12-5.373 12-12S18.627 0 12 0 0 5.373 0 12s5.373 12 12 12zm4.031-16.68l.297-1.695h-7.14L7.218 17h4.196c1.592.015 3.287-.622 4.117-2.055.591-1 .729-2.466.094-3.476-.999-1.605-2.913-1.595-4.604-1.585l-.466.001.43-2.565h5.046zM9.61 15.312l.652-3.74c.203 0 .437-.014.688-.03 1.06-.07 2.408-.158 2.864.856.294.629.086 1.484-.329 2.008-.786 1.001-2.082.96-3.264.92a21.61 21.61 0 00-.61-.014z"/></symbol><symbol id="bonus-stroke" viewBox="0 0 24 24"><circle cx="12" cy="12" r="10.5" stroke="currentColor"/><path d="M16.49 7.095l.116-.595H9.314l-.078.406-1.727 9-.114.594h4.291a6.038 6.038 0 001.567-.19h.003c.512-.136.98-.337 1.402-.606h0l.003-.002c.432-.28.787-.632 1.06-1.056.286-.438.45-.94.503-1.492h0v-.005c.058-.679-.072-1.296-.43-1.81a3.065 3.065 0 00-1.384-1.092 4.963 4.963 0 00-1.841-.372h0-.009l-1.02-.003.199-1.03h4.413l.078-.405.26-1.342zm-5.78 7.072l.379-1.96 1.41.003c.247.011.438.06.584.133h0l.007.004a.51.51 0 01.255.235h0l.004.008c.045.086.075.22.045.432-.037.246-.128.44-.265.596l-.001.001a1.525 1.525 0 01-.574.404 2.13 2.13 0 01-.803.148h-.001l-1.04-.004z" stroke="currentColor"/></symbol><symbol id="box" viewBox="0 0 32 32"><path fill-rule="evenodd" clip-rule="evenodd" d="M16.06 3.284L15.564 3l-.496.284L5.02 9.025a1.003 1.003 0 00-.034.02l-.486.277v12.662l.504.289 9.852 5.63a1 1 0 00.36.205l.348.199.496-.284 10.064-5.75.504-.288V9.92 9.323l-.486-.278-.018-.01-.016-.01L16.06 3.284zm.46 22.173l8.108-4.633v-9.198l-8.107 4.633v9.198zm-2-9.248L6.5 11.626v9.198l8.02 4.583V16.21zm9.093-6.306l-8.049-4.6-2.8 1.6 8.049 4.6 2.8-1.6zm-16.097 0l3.233-1.848 8.048 4.6-3.233 1.847-8.048-4.6z"/></symbol><symbol id="burger" viewBox="0 0 32 32"><path fill-rule="evenodd" clip-rule="evenodd" d="M28 9.5H4v-2h24v2zm0 7.502H4v-2h24v2zM4 24.504h24v-2H4v2z"/></symbol><symbol id="calendar" viewBox="0 0 24 25"><path fill-rule="evenodd" clip-rule="evenodd" d="M3 5h-.5v15h19V5H3zm.5 2V6h17v1h-17zm0 1h17v11h-17V8zM7 10.5H5v2h2v-2zm-2 4h2v2H5v-2zm6-4H9v2h2v-2zm-2 4h2v2H9v-2zm6-4h-2v2h2v-2zm-2 4h2v2h-2v-2zm6-4h-2v2h2v-2z"/></symbol><symbol id="camera-live" viewBox="0 0 25 24"><path fill-rule="evenodd" clip-rule="evenodd" d="M4.5 7h10v10h-10V7zm11 9V8h1v8h-1zm2-8v1.2l3-2.4 1-.8V18l-1-.8-3-2.4V17h-2v1h-12V6h12v1h2v1zm0 5.52v-3.04l3-2.4v7.84l-3-2.4zM8.276 8.931L7.5 8l-.776.932-1.126.45.647 1.026.08 1.21L7.5 11.32l1.176.298.08-1.21.646-1.026-1.126-.45z"/></symbol><symbol id="camera" viewBox="0 0 48 48"><path fill-rule="evenodd" clip-rule="evenodd" d="M41.321 11.031h-8.4l-.818-2.45A3.769 3.769 0 0028.523 6H20.41a3.769 3.769 0 00-3.58 2.58l-.817 2.451h-2.028V8.935A2.938 2.938 0 0011.05 6H9.373a2.938 2.938 0 00-2.935 2.935v2.248A4.62 4.62 0 003 15.643v21.802a4.617 4.617 0 004.612 4.612h33.71a4.617 4.617 0 004.611-4.612V15.643a4.617 4.617 0 00-4.612-4.612zM8.954 8.935a.42.42 0 01.419-.42h1.677a.42.42 0 01.42.42v2.096H8.953V8.935zm34.464 28.51c0 1.156-.94 2.097-2.097 2.097H7.612a2.099 2.099 0 01-2.096-2.097V15.643c0-1.156.94-2.096 2.096-2.096h9.308c.541 0 1.022-.347 1.193-.86l1.104-3.311c.171-.515.65-.86 1.193-.86h8.113c.543 0 1.022.345 1.194.86l1.103 3.31c.171.514.652.86 1.194.86h9.307c1.156 0 2.097.941 2.097 2.097v21.802zm-3.856-18.867a1.258 1.258 0 100-2.515 1.258 1.258 0 000 2.515zM9.374 16.063h2.515a1.258 1.258 0 010 2.515H9.374a1.258 1.258 0 110-2.515zm15.094 20.963c-6.242 0-11.32-5.078-11.32-11.32s5.078-11.32 11.32-11.32 11.32 5.078 11.32 11.32-5.078 11.32-11.32 11.32zm0-20.125c-4.855 0-8.804 3.95-8.804 8.805 0 4.855 3.95 8.804 8.804 8.804 4.855 0 8.805-3.95 8.805-8.804 0-4.855-3.95-8.805-8.805-8.805zm-6.29 8.805a6.296 6.296 0 006.29 6.29 6.296 6.296 0 006.288-6.29 6.296 6.296 0 00-6.289-6.289 6.296 6.296 0 00-6.289 6.29zm2.516 0a3.778 3.778 0 013.773-3.773 3.778 3.778 0 013.774 3.773 3.778 3.778 0 01-3.774 3.774 3.778 3.778 0 01-3.773-3.774z"/></symbol><symbol id="car-express" viewBox="0 0 32 32"><mask id="a"><path fill-rule="evenodd" clip-rule="evenodd" d="M5.942 5.941h18.126v4.929l6.702 5.564.36.3v6.6h-3.358a4.002 4.002 0 01-7.197.733h-3.15A3.998 3.998 0 0114 26a3.998 3.998 0 01-3.425-1.932H5.942V21h2v1.068h2.059L10 22a4 4 0 118 .068h2V22c0-1.508.835-2.822 2.068-3.503V7.94H7.942V9h-2V5.941zm23.189 15.393h-1.186A4.001 4.001 0 0024.068 18v-4.53l5.063 4.203v3.661zM16 22a2 2 0 11-4 0 2 2 0 014 0zm8 2a2 2 0 100-4 2 2 0 000 4zm-19-11h5v-2H5v2zm5 3H3v-2h7v2zm-9 3h9v-2H1v2z"/></mask><path fill-rule="evenodd" clip-rule="evenodd" d="M5.942 5.941h18.126v4.929l6.702 5.564.36.3v6.6h-3.358a4.002 4.002 0 01-7.197.733h-3.15A3.998 3.998 0 0114 26a3.998 3.998 0 01-3.425-1.932H5.942V21h2v1.068h2.059L10 22a4 4 0 118 .068h2V22c0-1.508.835-2.822 2.068-3.503V7.94H7.942V9h-2V5.941zm23.189 15.393h-1.186A4.001 4.001 0 0024.068 18v-4.53l5.063 4.203v3.661zM16 22a2 2 0 11-4 0 2 2 0 014 0zm8 2a2 2 0 100-4 2 2 0 000 4zm-19-11h5v-2H5v2zm5 3H3v-2h7v2zm-9 3h9v-2H1v2z"/><path d="M5.942 5.941v-2h-2v2h2zm18.126 0h2v-2h-2v2zm0 4.929h-2v.939l.723.6 1.277-1.54zm6.702 5.564l-1.278 1.539 1.278-1.54zm.36.3h2v-.94l-.722-.6-1.277 1.54zm0 6.6v2h2v-2h-2zm-3.358 0v-2h-1.414l-.472 1.333 1.886.667zm-7.197.733l1.712-1.035-.584-.965h-1.128v2zm-3.15 0v-2h-1.128l-.584.965 1.712 1.035zm-6.85 0l1.712-1.035-.584-.965h-1.128v2zm-4.633 0h-2v2h2v-2zm0-3.068v-2h-2v2h2zm2 0h2v-2h-2v2zm0 1.068h-2v2h2v-2zm2.059 0v2h2.033L12 22.034l-2 .033zm7.998 0l-2-.033-.033 2.033h2.033v-2zm2.002 0v2h2.033L22 22.034l-2 .033zm2.067-3.571l.967 1.75 1.033-.57v-1.18h-2zm0-10.555h2v-2h-2v2zm-14.126 0v-2h-2v2h2zm0 1.058v2h2v-2h-2zm-2 0h-2v2h2v-2zm22.003 12.335l-1.973.33.28 1.67h1.693v-2zm1.186 0v2h2v-2h-2zM24.068 18h-2v1.966l1.967.033.033-2zm0-4.53l1.278-1.54-3.278-2.72v4.26h2zm5.063 4.203h2v-.94l-.723-.6-1.277 1.54zM10 12.999v2h2v-2h-2zm-5 0H3v2h2v-2zm5-2h2v-2h-2v2zm-5 0v-2H3v2h2zm-2 5H1v2h2v-2zm7 0v2h2v-2h-2zm-7-2v-2H1v2h2zm7 0h2v-2h-2v2zm0 5v2h2v-2h-2zm-9 0h-2v2h2v-2zm9-2h2v-2h-2v2zm-9 0v-2h-2v2h2zM6.942 3.941h-1v4h1v-4zm16.126 0H6.942v4h16.126v-4zm1 0h-1v4h1v-4zm2 3v-1h-4v1h4zm0 3.929V6.94h-4v3.929h4zm5.98 4.025l-6.702-5.564-2.555 3.078 6.701 5.564 2.555-3.078zm.36.3l-.36-.3-2.556 3.078.361.3 2.555-3.078zm.723 2.008v-.47h-4v.47h4zm0 5.131v-5.13h-4v5.13h4zm0 1v-1h-4v1h4zm-3 2h1v-4h-1v4zm-2.36 0h2.36v-4h-2.36v4zM24 28a6.002 6.002 0 005.657-3.998l-3.77-1.334A2.002 2.002 0 0124 23.999v4zm-5.136-2.896A5.998 5.998 0 0024 27.999v-4c-.724 0-1.36-.383-1.713-.967l-3.423 2.07zm-1.44.964h3.151v-4h-3.15v4zM14 28a5.998 5.998 0 005.136-2.896l-3.422-2.071c-.354.584-.99.967-1.714.967v4zm-5.136-2.896A5.998 5.998 0 0014 27.999v-4c-.724 0-1.36-.383-1.713-.967l-3.423 2.07zm-1.922.964h3.633v-4H6.942v4zm-1 0h1v-4h-1v4zm-2-3v1h4v-1h-4zm0-2.068v2.068h4V21h-4zm4-2h-2v4h2v-4zm2 3.068V21h-4v1.068h4zm.059-2H7.942v4h2.059v-4zM8 22v.101l4-.066v-.035H8zm6-6a6 6 0 00-6 6h4a2 2 0 012-2v-4zm6 6a6 6 0 00-6-6v4a2 2 0 012 2h4zm0 .101V22h-4v.035l4 .066zm0-2.033h-2v4h2v-4zM18 22v.101l4-.066v-.035h-4zm3.1-5.254A6 6 0 0018 22h4c0-.752.414-1.41 1.035-1.753l-1.934-3.5zm-1.032-8.804v10.555h4V7.94h-4zm-12.126 2h14.126v-4H7.942v4zm2-.942V7.941h-4V9h4zm-4 2h2v-4h-2v4zm-2-4.058V9h4V6.941h-4zm0-1v1h4v-1h-4zm24.003 17.393h1.186v-4h-1.186v4zM24.035 20a2.001 2.001 0 011.937 1.665l3.946-.66A6.001 6.001 0 0024.1 16l-.066 4zm-1.967-6.53V18h4v-4.53h-4zm8.34 2.665l-5.062-4.204-2.555 3.078 5.062 4.203 2.555-3.077zm.723 5.2v-3.661h-4v3.661h4zM14 26a4 4 0 004-4h-4v4zm-4-4a4 4 0 004 4v-4h-4zm4-4a4 4 0 00-4 4h4v-4zm4 4a4 4 0 00-4-4v4h4zm6 0v4a4 4 0 004-4h-4zm0 0h4a4 4 0 00-4-4v4zm0 0v-4a4 4 0 00-4 4h4zm0 0h-4a4 4 0 004 4v-4zm-14-11H5v4h5v-4zm-2 0v2h4v-2H8zm-3 2h5v-4H5v4zm2 0v-2H3v2h4zm-4 5h7v-4H3v4zm-2-4v2h4v-2H1zm9-2H3v4h7v-4zm2 4v-2H8v2h4zm-2 1H1v4h9v-4zm-2 0v2h4v-2H8zm-7 2h9v-4H1v4zm2 0v-2h-4v2h4z" mask="url(#a)"/></symbol><symbol id="car" viewBox="0 0 49 48"><mask id="a"><path fill-rule="evenodd" clip-rule="evenodd" d="M5.5 9h-1v27h5.083a6.002 6.002 0 0011.834 0h5.166a6.002 6.002 0 0011.834 0H44.5v-9.9l-.401-.3L31.5 16.374V9h-26zm26 9.872v10.211A6.002 6.002 0 0138.417 34H42.5v-6.9l-11-8.228zm-2 10.93V11h-23v23h3.083a6.002 6.002 0 0111.834 0h5.166a6.005 6.005 0 012.917-4.197zM11.5 35a4 4 0 118 0 4 4 0 01-8 0zm21-4a4 4 0 100 8 4 4 0 000-8z"/></mask><path fill-rule="evenodd" clip-rule="evenodd" d="M5.5 9h-1v27h5.083a6.002 6.002 0 0011.834 0h5.166a6.002 6.002 0 0011.834 0H44.5v-9.9l-.401-.3L31.5 16.374V9h-26zm26 9.872v10.211A6.002 6.002 0 0138.417 34H42.5v-6.9l-11-8.228zm-2 10.93V11h-23v23h3.083a6.002 6.002 0 0111.834 0h5.166a6.005 6.005 0 012.917-4.197zM11.5 35a4 4 0 118 0 4 4 0 01-8 0zm21-4a4 4 0 100 8 4 4 0 000-8z"/><path d="M4.5 9V7h-2v2h2zm0 27h-2v2h2v-2zm5.083 0l1.972-.33-.28-1.67H9.583v2zm11.834 0v-2h-1.692l-.28 1.67 1.972.33zm5.166 0l1.972-.33-.28-1.67h-1.692v2zm11.834 0v-2h-1.692l-.28 1.67 1.972.33zm6.083 0v2h2v-2h-2zm0-9.9h2v-1.002l-.802-.6-1.198 1.601zm-.401-.3l-1.198 1.6 1.198-1.6zM31.5 16.374h-2v1.001l.802.6 1.198-1.601zM31.5 9h2V7h-2v2zm0 9.872l1.198-1.601-3.198-2.393v3.994h2zm0 10.211h-2v2.363l2.33-.39-.33-1.973zM38.417 34l-1.972.33.28 1.67h1.692v-2zm4.083 0v2h2v-2h-2zm0-6.9h2v-1l-.802-.6-1.198 1.6zm-13 2.703l1.002 1.73.998-.577v-1.153h-2zM29.5 11h2V9h-2v2zm-23 0V9h-2v2h2zm0 23h-2v2h2v-2zm3.083 0v2h1.692l.28-1.67L9.583 34zm11.834 0l-1.972.33.28 1.67h1.692v-2zm5.166 0v2h1.692l.28-1.67-1.972-.33zM4.5 11h1V7h-1v4zm2-1V9h-4v1h4zm0 25V10h-4v25h4zm0 1v-1h-4v1h4zm-1-2h-1v4h1v-4zm4.083 0H5.5v4h4.083v-4zm5.917 5a4.002 4.002 0 01-3.945-3.33l-3.944.66A8.002 8.002 0 0015.5 43v-4zm3.945-3.33A4.002 4.002 0 0115.5 39v4a8.002 8.002 0 007.89-6.67l-3.945-.66zM26.583 34h-5.166v4h5.166v-4zm5.917 5a4.002 4.002 0 01-3.945-3.33l-3.945.66A8.002 8.002 0 0032.5 43v-4zm3.945-3.33A4.002 4.002 0 0132.5 39v4a8.002 8.002 0 007.89-6.67l-3.945-.66zM43.5 34h-5.083v4H43.5v-4zm1 0h-1v4h1v-4zm-2 1v1h4v-1h-4zm0-8.4V35h4v-8.4h-4zm0-.5v.5h4v-.5h-4zm.401 1.3l.401.3 2.396-3.202-.401-.3-2.396 3.203zm-12.599-9.424l12.599 9.425 2.396-3.203-12.599-9.425-2.396 3.203zM29.5 10v6.375h4V10h-4zm0-1v1h4V9h-4zm1 2h1V7h-1v4zm-25 0h25V7h-25v4zm24 7.872v10.211h4v-10.21h-4zm2.33 12.183A4.04 4.04 0 0132.5 31v-4c-.452 0-.897.038-1.33.11l.66 3.945zM32.5 31c1.98 0 3.627 1.44 3.945 3.33l3.944-.66A8.002 8.002 0 0032.5 27v4zm5.917 5H42.5v-4h-4.083v4zm6.083-2v-6.9h-4V34h4zm-.802-8.5l-11-8.23-2.396 3.204 11 8.228 2.396-3.203zM31.5 29.802V11h-4v18.803h4zM29.5 9h-23v4h23V9zm-25 2v23h4V11h-4zm2 25h3.083v-4H6.5v4zm5.055-1.67A4.002 4.002 0 0115.5 31v-4a8.002 8.002 0 00-7.89 6.67l3.945.66zM15.5 31c1.98 0 3.628 1.44 3.945 3.33l3.945-.66A8.002 8.002 0 0015.5 27v4zm5.917 5h5.166v-4h-5.166v4zm7.138-1.67c.2-1.19.93-2.208 1.947-2.796l-2.003-3.462a8.006 8.006 0 00-3.889 5.597l3.945.662zM15.5 29a6 6 0 00-6 6h4a2 2 0 012-2v-4zm6 6a6 6 0 00-6-6v4a2 2 0 012 2h4zm-6 6a6 6 0 006-6h-4a2 2 0 01-2 2v4zm-6-6a6 6 0 006 6v-4a2 2 0 01-2-2h-4zm21 0a2 2 0 012-2v-4a6 6 0 00-6 6h4zm2 2a2 2 0 01-2-2h-4a6 6 0 006 6v-4zm2-2a2 2 0 01-2 2v4a6 6 0 006-6h-4zm-2-2a2 2 0 012 2h4a6 6 0 00-6-6v4z" mask="url(#a)"/></symbol><symbol id="cart-delivery" viewBox="0 0 25 23"><path d="M23.25 13.01l-.648-2.589a.392.392 0 00.31-.383v-.417c0-.907-.737-1.644-1.644-1.644H18.32v-.862a.81.81 0 00-.809-.809h-5.483l3.332-1.332a.391.391 0 00-.29-.727L12.34 5.338c.832-.533 1.654-1.12 1.967-1.531.61-.8.456-1.945-.344-2.555a1.825 1.825 0 00-2.555.344c-.445.584-1.033 2.225-1.413 3.382-.38-1.157-.968-2.798-1.414-3.382a1.825 1.825 0 00-2.555-.344c-.799.61-.953 1.756-.344 2.555.313.41 1.136.998 1.967 1.531L4.921 4.247a.391.391 0 10-.29.727l3.331 1.332H2.48a.81.81 0 00-.809.81v7.098a.391.391 0 10.783 0V7.115c0-.014.012-.026.026-.026H17.51c.015 0 .026.012.026.026v7.099a.391.391 0 10.783 0v-.444H22.94c.569 0 1.05.373 1.217.887h-1.218a.391.391 0 00-.391.392v.835c0 .676.55 1.226 1.226 1.226h.444v1.723h-1.023a2.483 2.483 0 00-2.343-1.67c-1.084 0-2.007.699-2.343 1.67h-.189v-2.95a.391.391 0 00-.783 0v2.95H9.415a2.483 2.483 0 00-2.343-1.67c-1.084 0-2.007.699-2.343 1.67H2.48a.026.026 0 01-.026-.026v-.862h1.696a.392.392 0 000-.783H.391a.391.391 0 100 .783h1.28v.861a.81.81 0 00.808.81h2.115l-.001.026a2.482 2.482 0 002.479 2.479 2.482 2.482 0 002.48-2.48l-.002-.025h8.822v.026a2.482 2.482 0 002.479 2.479 2.482 2.482 0 002.479-2.48v-.025h1.279a.391.391 0 00.39-.392v-4.175c.001-1.031-.76-1.888-1.75-2.038zM8.442 4.912C6.898 3.951 6.44 3.51 6.305 3.332a1.041 1.041 0 011.654-1.261c.379.496.972 2.167 1.363 3.371a43.098 43.098 0 01-.88-.531zm2.226.531c.391-1.204.984-2.875 1.363-3.371a1.041 1.041 0 011.654 1.261c-.136.178-.594.62-2.138 1.579-.311.194-.615.376-.88.531zm7.651 3.317h2.95c.474 0 .86.387.86.862v.026h-3.81v-.888zm0 4.228V10.43h3.479l.64 2.557h-4.119zm-11.247 8.35a1.698 1.698 0 01-1.696-1.695c0-.936.76-1.697 1.696-1.697.935 0 1.696.761 1.696 1.697 0 .935-.76 1.696-1.696 1.696zm13.779 0a1.698 1.698 0 01-1.697-1.695c0-.936.761-1.697 1.697-1.697.935 0 1.696.761 1.696 1.697 0 .935-.761 1.696-1.696 1.696zm3.366-5.01h-.444a.444.444 0 01-.443-.443v-.444h.887v.887z"/><path d="M7.07 18.833a.81.81 0 000 1.618.81.81 0 000-1.618zM20.852 18.833a.81.81 0 000 1.618.81.81 0 000-1.618zM16.26 17.162h-5.845a.391.391 0 100 .783h5.845a.392.392 0 000-.783zM6.238 15.492h-5.01a.392.392 0 000 .783h5.01a.391.391 0 100-.783zM6.237 9.647h-1.67a.391.391 0 00-.391.391v3.34a.391.391 0 00.783 0V12.1h.86a.392.392 0 000-.783h-.86v-.887h1.278a.391.391 0 100-.783zM9.317 12.283a1.435 1.435 0 00-.784-2.636H7.489a.391.391 0 00-.391.391v3.34a.391.391 0 00.783 0v-.86h.651l.72 1.078a.391.391 0 10.65-.435l-.585-.878zm-.784-.549h-.652V10.43h.652a.653.653 0 010 1.304zM12.5 12.987h-1.28v-.889l.026.002h.835a.391.391 0 100-.783h-.835l-.026.001v-.888h1.28a.391.391 0 100-.783h-1.671a.391.391 0 00-.392.391v3.34c0 .217.176.392.392.392h1.67a.391.391 0 100-.783zM15.425 12.987h-1.279V12.1h.444a.391.391 0 100-.783h-.444v-.887h1.279a.391.391 0 100-.783h-1.67a.391.391 0 00-.392.391v3.34c0 .217.176.392.392.392h1.67a.391.391 0 100-.783z"/></symbol><symbol id="cart" viewBox="0 0 24 24"><path fill-rule="evenodd" clip-rule="evenodd" d="M8.816 8.027c.113-.465.254-.924.429-1.355.61-1.507 1.504-2.422 2.774-2.422s2.163.915 2.773 2.422c.175.431.316.89.43 1.355H8.816zm-1.784 1.5c-.07.619-.1 1.195-.1 1.682v.75h1.5v-.75c0-.486.033-1.066.11-1.682h6.952c.078.616.11 1.196.11 1.682v.75h1.5v-.75c0-.487-.029-1.063-.099-1.682h2.365l-.75 9H5.38l-.75-9h2.402zm.245-1.5c.14-.648.328-1.303.578-1.918.69-1.704 1.964-3.359 4.164-3.359 2.199 0 3.473 1.655 4.164 3.36.249.614.438 1.269.577 1.917H21l-.125 1.5-.875 10.5H4l-.875-10.5L3 8.027H7.277z"/></symbol><symbol id="check-fill" viewBox="0 0 24 24"><path fill-rule="evenodd" clip-rule="evenodd" d="M22 12c0 5.523-4.477 10-10 10S2 17.523 2 12 6.477 2 12 2s10 4.477 10 10zm-4.392-3.561l.44-.608-1.217-.878-.44.608-5.338 7.397-3.619-2.57-.611-.434-.869 1.223.612.435 4.226 3 .606.43.436-.603 5.774-8z"/></symbol><symbol id="chevron-down" viewBox="0 0 24 24"><path fill-rule="evenodd" clip-rule="evenodd" d="M20 8.74l-.37.336-7.294 6.635-.336.306-.337-.306L4.37 9.076 4 8.74 4.673 8l.37.336L12 14.666l6.957-6.33.37-.336.672.74z"/></symbol><symbol id="chevron-left" viewBox="0 0 32 32"><path fill-rule="evenodd" clip-rule="evenodd" d="M20.094 6l-.673.74-7.81 8.588-.611.673.612.672 7.809 8.589.673.74 1.48-1.346-.673-.74-7.198-7.915 7.198-7.916.672-.74L20.093 6z"/></symbol><symbol id="chevron-right-new" viewBox="0 0 9 17"><path fill-rule="evenodd" clip-rule="evenodd" d="M.74.5l.336.37 6.635 7.293.306.336-.306.337-6.635 7.293-.336.37-.74-.673.336-.37L6.666 8.5.335 1.543 0 1.173.74.5z"/></symbol><symbol id="chevron-right" viewBox="0 0 32 32"><path fill-rule="evenodd" clip-rule="evenodd" d="M12.48 6l.672.74 7.81 8.589.612.672-.612.673-7.81 8.59-.672.74L11 24.656l.673-.74 7.198-7.916-7.198-7.916-.673-.74L12.48 6z"/></symbol><symbol id="chevron_right" viewBox="0 0 7 11"><path d="M1 10.5l5.5-5L1 .5" stroke="#3E3E3E" stroke-linecap="round" stroke-linejoin="round"/></symbol><symbol id="circle-warning" viewBox="0 0 24 24"><path fill-rule="evenodd" clip-rule="evenodd" d="M12 3c-1.079 0-1.93.918-1.847 1.994l.77 10.009a1.08 1.08 0 002.154 0l.77-10.009A1.852 1.852 0 0012 3zm0 18a1.5 1.5 0 100-3 1.5 1.5 0 000 3z"/></symbol><symbol id="close-circle" viewBox="0 0 24 24"><path d="M12 22c5.523 0 10-4.477 10-10S17.523 2 12 2 2 6.477 2 12s4.477 10 10 10z"/><path d="M17 7L7 17M7 7l10 10" stroke="#fff" stroke-width="1.5" stroke-linejoin="round"/></symbol><symbol id="close-header" viewBox="0 0 16 16"><path d="M8.707 8.707a1 1 0 000-1.414L2.343.929A1 1 0 00.93 2.343L6.586 8 .929 13.657a1 1 0 101.414 1.414l6.364-6.364zM7 9h1V7H7v2z"/><path d="M7.293 7.293a1 1 0 000 1.414l6.364 6.364a1 1 0 001.414-1.414L9.414 8l5.657-5.657A1 1 0 0013.657.93L7.293 7.293zM9 7H8v2h1V7z"/></symbol><symbol id="close-new" viewBox="0 0 32 32"><path fill-rule="evenodd" clip-rule="evenodd" d="M23.876 6.707L24.583 6l1.415 1.414-.707.707L17.413 16l7.878 7.878.707.707-1.414 1.414-.707-.707-7.878-7.878-7.878 7.878-.707.707L6 24.583l.707-.707L14.585 16 6.707 8.122 6 7.414 7.414 6l.708.707 7.877 7.878 7.877-7.878z"/></symbol><symbol id="close-shops" viewBox="0 0 9 9"><path fill-rule="evenodd" clip-rule="evenodd" d="M6.942.854L7.295.5l.707.707-.353.354-2.94 2.94 2.94 2.94.354.354-.708.707-.353-.353-2.94-2.94-2.941 2.94-.354.353L0 7.795l.354-.353 2.94-2.94L.354 1.56 0 1.207.707.5l.354.354L4 3.794l2.94-2.94z"/></symbol><symbol id="close" viewBox="0 0 10 10"><path d="M1 9l4-4 4-4M9 9L5 5 1 1" stroke="currentColor" stroke-width="2" stroke-linecap="round"/></symbol><symbol id="condition-icon-title" viewBox="0 0 16 13"><path fill-rule="evenodd" clip-rule="evenodd" d="M15.822 1.26l-.624.781-7.334 9.167-.637.797-.784-.653-5.5-4.584-.768-.64 1.28-1.536.769.64 4.716 3.93 6.696-8.37.625-.78 1.561 1.249z"/></symbol><symbol id="copy" viewBox="0 0 24 24"><path fill-rule="evenodd" clip-rule="evenodd" d="M4.5 4H4v14.677h1V5h13.677V4H4.5zm2.823 3.323H19V19H7.323V7.323zm-1-1H20V20H6.323V6.323z"/></symbol><symbol id="discount" viewBox="0 0 24 24"><path fill-rule="evenodd" clip-rule="evenodd" d="M8 4.5a2.5 2.5 0 100 5 2.5 2.5 0 000-5zM4.5 7a3.5 3.5 0 117 0 3.5 3.5 0 01-7 0zM17 14.5a2.5 2.5 0 100 5 2.5 2.5 0 000-5zM13.5 17a3.5 3.5 0 117 0 3.5 3.5 0 01-7 0zm-8.146 2.496L19.496 5.354l-.707-.708L4.646 18.79l.708.707z"/></symbol><symbol id="document" viewBox="0 0 24 24"><path fill-rule="evenodd" clip-rule="evenodd" d="M8 3.5h-.5v3h-3v15h12v-3h3v-15H8zm8.5 14h2v-13h-10v2h4.086a.5.5 0 01.349.141l3.413 3.316a.5.5 0 01.152.359V17.5zm-9-10h-2v13h10v-9.684h-3.414V7.5H7.5zm7.268 2.316l-1.682-1.633v1.633h1.682z"/></symbol><symbol id="done" viewBox="0 0 32 32"><path fill-rule="evenodd" clip-rule="evenodd" d="M26.738 9.177l-.624.781-10.667 13.333-.637.797-.784-.653-8-6.667-.768-.64 1.28-1.536.768.64 7.217 6.013L24.552 8.71l.625-.781 1.561 1.25z"/></symbol><symbol id="dots" viewBox="0 0 10 3"><path d="M.122 1.282c0-.23.07-.422.212-.578C.481.542.691.462.964.462c.274 0 .481.08.623.242.146.156.22.349.22.578a.805.805 0 01-.22.572c-.142.156-.35.234-.623.234s-.483-.078-.63-.234a.82.82 0 01-.212-.572zm3.955 0c0-.23.07-.422.213-.578.146-.162.356-.242.63-.242.273 0 .48.08.622.242.146.156.22.349.22.578a.805.805 0 01-.22.572c-.142.156-.35.234-.623.234s-.483-.078-.63-.234a.82.82 0 01-.212-.572zm3.955 0c0-.23.071-.422.213-.578.146-.162.356-.242.63-.242.273 0 .48.08.622.242.147.156.22.349.22.578a.805.805 0 01-.22.572c-.142.156-.35.234-.622.234-.274 0-.484-.078-.63-.234a.82.82 0 01-.213-.572z"/></symbol><symbol id="exit" viewBox="0 0 24 24"><path d="M12 17.09V20H3V4h9v2.91M10 12h11m0 0l-4-3.5m4 3.5l-4 3.5" stroke="gray"/></symbol><symbol id="export" viewBox="0 0 24 24"><path fill-rule="evenodd" clip-rule="evenodd" d="M12.5 2.5v11.293l3.146-3.147.354-.353.707.707-.353.354-4 4-.354.353-.354-.353-4-4L7.293 11 8 10.293l.354.353 3.146 3.147V2.5h1zM3.5 16v4.5h17V16h1v5.5h-19V16h1z"/></symbol><symbol id="extended-range" viewBox="0 0 17 17"><path fill-rule="evenodd" clip-rule="evenodd" d="M0 .5H16.002v16.003H0V.5zm1 1v14.002h14.002V1.5H1zm7.478 5.817l.354-.354 2.7-2.7H9.08v-1h4.159v4.159h-1V4.971l-2.7 2.7-.354.353-.707-.707zM7.17 10.039l.354-.354-.707-.707-.354.354-2.7 2.7V9.58h-1v4.159h4.159v-1H4.47l2.7-2.7z"/></symbol><symbol id="eye" viewBox="0 0 24 24"><path fill-rule="evenodd" clip-rule="evenodd" d="M3.403 12.718a13.38 13.38 0 01-.464-.703L2.929 12l.01-.014c.103-.168.258-.41.464-.703a15.58 15.58 0 011.819-2.142C6.819 7.579 9.113 6.066 12 6.066c2.887 0 5.181 1.513 6.779 3.075a15.578 15.578 0 012.283 2.845l.009.014-.01.015c-.102.168-.258.41-.463.703a15.587 15.587 0 01-1.82 2.142c-1.597 1.562-3.89 3.075-6.778 3.075-2.888 0-5.182-1.513-6.78-3.075a15.589 15.589 0 01-1.818-2.142zm18.688-.957l-.44.24.44.24-.002.001-.002.005-.01.017-.033.059-.129.215c-.113.184-.28.445-.499.756a16.569 16.569 0 01-1.937 2.281c-1.693 1.655-4.224 3.36-7.478 3.36-3.254 0-5.786-1.705-7.479-3.36a16.58 16.58 0 01-2.436-3.037 9.48 9.48 0 01-.162-.274l-.01-.017-.002-.005v-.001H1.91L2.35 12a53.62 53.62 0 01-.44-.24h.001l.001-.002.003-.005.009-.017a5.813 5.813 0 01.162-.274 16.583 16.583 0 012.436-3.037c1.693-1.655 4.225-3.36 7.479-3.36 3.254 0 5.785 1.705 7.478 3.36a16.572 16.572 0 012.436 3.037c.056.092.1.164.129.215l.034.06.009.016.002.005.001.001zm-.44.24l.44-.24a.5.5 0 010 .479l-.44-.24zm-19.74-.24l.439.24-.44.239a.5.5 0 010-.479zm7.996.19a2.095 2.095 0 114.19 0 2.095 2.095 0 01-4.19 0zm2.095-3.095a3.095 3.095 0 100 6.19 3.095 3.095 0 000-6.19z"/></symbol><symbol id="facebook" viewBox="0 0 43 42"><path d="M1.003 4a4 4 0 014-4H38.99a4 4 0 014 4v34a4 4 0 01-4 4h-9.015V25.725h5.458l.813-6.326h-6.271v-4.043c0-1.837.525-3.097 3.149-3.097h3.359v-5.67c-.578-.079-2.572-.237-4.881-.237-4.855 0-8.161 2.94-8.161 8.374V19.4h-5.485v6.326h5.485V42H4.989a4 4 0 01-4-4v-5.146l.014-23.666V4z"/></symbol><symbol id="fb" viewBox="0 0 16 16"><g clip-path="url(#clip0_4206_12582)"><path d="M10.665 2.657h1.46V.113A18.86 18.86 0 009.997 0C7.891 0 6.45 1.325 6.45 3.76V6H4.125v2.844h2.324V16h2.85V8.845h2.23L11.881 6H9.297V4.04c.001-.822.222-1.384 1.368-1.384z"/></g></symbol><symbol id="filters" viewBox="0 0 24 24"><path fill-rule="evenodd" clip-rule="evenodd" d="M4 17.318h6.222v1H4v-1zm10.278 0H20v1h-5.722V20h-1v-4.364h1v1.682zM20 11.5h-8v1h8v-1zm-16 0h3.944V9.818h1v4.364h-1V12.5H4v-1zm12.055-4.818v1.682h-1V4h1v1.682H20v1h-3.945zM4 5.682h8v1H4v-1z"/></symbol><symbol id="friend" viewBox="0 0 24 24"><path d="M14.336 14.415a3.588 3.588 0 012.5-1.007h1.929c.937 0 1.837.362 2.5 1.007a3.39 3.39 0 011.035 2.43v.626a.924.924 0 01-.282.663.978.978 0 01-.682.274H15.5" stroke="currentColor"/><path d="M17.8 13.408a2.5 2.5 0 100-5 2.5 2.5 0 000 5zM1.438 17.93a5.5 5.5 0 015.5-5.5h3a5.5 5.5 0 015.5 5.5v1a1.5 1.5 0 01-1.5 1.5h-11a1.5 1.5 0 01-1.5-1.5v-1zM8.438 12.43a4 4 0 100-8 4 4 0 000 8z" stroke="currentColor"/></symbol><symbol id="gift" viewBox="0 0 32 32"><path fill-rule="evenodd" clip-rule="evenodd" d="M16 32c8.837 0 16-7.163 16-16S24.837 0 16 0 0 7.163 0 16s7.163 16 16 16zM11.4 8.29c.294-.39.585-.499.856-.49.306.011.687.175 1.113.528.693.574 1.375 1.538 1.862 2.601-.876-.125-1.965-.436-2.81-.88-.565-.298-.949-.618-1.12-.917a.659.659 0 01-.1-.381c.008-.119.057-.271.199-.46zm2.606-.732c.764.632 1.469 1.604 1.994 2.66.525-1.056 1.23-2.028 1.994-2.66.511-.423 1.1-.735 1.715-.757.65-.022 1.235.281 1.691.89.233.31.372.642.397.989.024.347-.069.668-.23.95-.314.545-.899.975-1.522 1.303a7.567 7.567 0 01-.13.067H24v5h-1v10H9V16H8v-5h4.085a7.567 7.567 0 01-.13-.067c-.623-.328-1.209-.758-1.521-1.303a1.655 1.655 0 01-.23-.95c.024-.347.163-.678.396-.99.456-.608 1.04-.912 1.69-.889.617.022 1.205.333 1.716.757zM9 12h6.5v3H9v-3zm13 13h-5.5v-9H22v9zm-6.5 0v-9H10v9h5.5zM22 15h-5.5v-3H23v3h-1zm-2.256-7.2c.271-.009.562.1.856.49.142.19.19.342.2.46a.659.659 0 01-.1.382c-.172.3-.556.619-1.12.916-.846.445-1.935.756-2.811.881.487-1.063 1.169-2.027 1.862-2.601.427-.353.807-.517 1.113-.527z"/></symbol><symbol id="grid-cl-1" viewBox="0 0 25 24"><path fill-rule="evenodd" clip-rule="evenodd" d="M19 5v5.111H5V5h14zm1-1v7.111H4V4h16zm-1 9.889V19H5v-5.111h14zm1-1V20H4v-7.111h16z"/></symbol><symbol id="grid-cl-2-mob" viewBox="0 0 24 24"><path fill-rule="evenodd" clip-rule="evenodd" d="M5 5h5.111v14H5V5zM4 4h7.111v16H4V4zm9.889 1H19v14h-5.111V5zm-1-1H20v16h-7.111V4z"/></symbol><symbol id="grid-cl-2" viewBox="0 0 24 24"><path stroke="currentColor" d="M7.25 3.75h3v-3h-3zM13.75 3.75h3v-3h-3zM7.25 10.25h3v-3h-3zM13.75 10.25h3v-3h-3zM7.25 16.75h3v-3h-3zM13.75 16.75h3v-3h-3zM7.25 23.25h3v-3h-3zM13.75 23.25h3v-3h-3z"/></symbol><symbol id="grid-cl-3" viewBox="0 0 24 24"><path stroke="currentColor" d="M.5.5h5v5h-5zM9.5.5h5v5h-5zM18.5.5h5v5h-5zM.5 9.5h5v5h-5zM9.5 9.5h5v5h-5zM18.5 9.5h5v5h-5zM.5 18.5h5v5h-5zM9.5 18.5h5v5h-5zM18.5 18.5h5v5h-5z"/></symbol><symbol id="grid-cl-4" viewBox="0 0 24 24"><path stroke="currentColor" d="M.75 3.75h3v-3h-3zM7.25 3.75h3v-3h-3zM13.75 3.75h3v-3h-3zM20.25 3.75h3v-3h-3zM.75 10.25h3v-3h-3zM7.25 10.25h3v-3h-3zM13.75 10.25h3v-3h-3zM20.25 10.25h3v-3h-3zM.75 16.75h3v-3h-3zM7.25 16.75h3v-3h-3zM13.75 16.75h3v-3h-3zM20.25 16.75h3v-3h-3zM.75 23.25h3v-3h-3zM7.25 23.25h3v-3h-3zM13.75 23.25h3v-3h-3zM20.25 23.25h3v-3h-3z"/></symbol><symbol id="header-cart" viewBox="0 0 19 18"><path d="M17.643 16.115a1.5 1.5 0 01-1.495 1.385H2.852a1.5 1.5 0 01-1.496-1.385l-.692-9A1.5 1.5 0 012.16 5.5h14.68a1.5 1.5 0 011.496 1.615l-.692 9z" stroke="currentColor"/><path d="M5 9c0-2.667.9-8 4.5-8S14 6.333 14 9" stroke="currentColor" stroke-linecap="round" stroke-linejoin="round"/></symbol><symbol id="header-favourites" viewBox="0 0 19 17"><path d="M16.897 8.28L9.5 16.264 2.103 8.28a4.315 4.315 0 016.233-5.968l.809.817.355.36.355-.36.81-.817a4.315 4.315 0 016.232 5.968z" stroke="currentColor"/></symbol><symbol id="header-new-close" viewBox="0 0 18 16"><rect width="22.06" height="1.448" rx=".724" transform="scale(1.03612 .96253) rotate(45 .512 1.236)"/><rect width="22.06" height="1.448" rx=".724" transform="scale(1.03612 .96253) rotate(-45 18.83 7.8)"/></symbol><symbol id="header-search" viewBox="0 0 17 18"><path stroke="currentColor" stroke-width="1.104" d="M7.399.552c3.755 0 6.847 3.092 6.847 6.847s-2.982 6.957-6.847 6.957S.552 11.264.552 7.509 3.644.552 7.399.552zm4.196 12.258v0c.221-.221.663-.221.883 0l3.534 3.534c.221.221.221.663 0 .883v0c-.221.221-.663.221-.883 0l-3.534-3.534c-.221-.221-.221-.552 0-.883z"/></symbol><symbol id="header-shops" viewBox="0 0 12 17"><path stroke="currentColor" d="M6.545 15.045c-.255.255-.425.51-.595.68a34.52 34.52 0 01-2.975-3.91c-.68-1.02-1.36-2.125-1.785-3.145S.51 6.715.51 6.035C.51 2.975 2.975.51 6.035.51s5.525 2.465 5.525 5.525c0 .68-.34 1.7-.85 2.805s-1.275 2.295-2.04 3.4c-.85 1.105-1.53 2.04-2.125 2.805v0zm1.445-9.01c0 1.105-.935 2.04-2.04 2.04s-1.955-.935-1.955-2.04.935-2.04 2.04-2.04 1.955.935 1.955 2.04z"/></symbol><symbol id="header-user" viewBox="0 0 15 17"><path d="M.5 14A5.5 5.5 0 016 8.5h3a5.5 5.5 0 015.5 5.5v1a1.5 1.5 0 01-1.5 1.5H2A1.5 1.5 0 01.5 15v-1z" stroke="currentColor"/><circle cx="7.5" cy="4.5" r="4" stroke="currentColor"/></symbol><symbol id="heart-fill" viewBox="0 0 24 24"><path d="M20.178 11.787l-8.141 8.786-8.14-8.786a4.749 4.749 0 016.859-6.568l.89.899.391.396.39-.396.892-.9a4.749 4.749 0 016.859 6.569z"/></symbol><symbol id="heart" viewBox="0 0 24 24"><path fill-rule="evenodd" clip-rule="evenodd" d="M7.427 4.543a3.999 3.999 0 00-2.983 6.731l.002.003 7.59 8.193 7.59-8.192a4 4 0 00-5.775-5.531l-.89.898-.001.001-.39.395-.533.541-.534-.541-.39-.395-.001-.001-.89-.898-.002-.003a3.999 3.999 0 00-2.793-1.2zm4.61.904l.749-.756a5.499 5.499 0 017.942 7.605l-8.141 8.787-.55.594-.55-.594L3.347 12.3l-.001-.001a5.499 5.499 0 017.943-7.606l.001.002.746.753z"/></symbol><symbol id="info" viewBox="0 0 32 32"><path fill-rule="evenodd" clip-rule="evenodd" d="M16 29c7.18 0 13-5.82 13-13S23.18 3 16 3 3 8.82 3 16s5.82 13 13 13zm-1.345-6v-9.526h2.684V23h-2.684zm1.342-11.946c-.88 0-1.606-.726-1.606-1.606 0-.88.726-1.606 1.606-1.606.88 0 1.606.726 1.606 1.606 0 .88-.726 1.606-1.606 1.606z"/></symbol><symbol id="inst" viewBox="0 0 16 16"><g clip-path="url(#clip0_4206_12577)"><path d="M15.984 4.704c-.037-.85-.175-1.435-.372-1.941a3.905 3.905 0 00-.925-1.419 3.938 3.938 0 00-1.416-.922c-.51-.197-1.09-.334-1.94-.372C10.473.01 10.2 0 8.03 0 5.857 0 5.585.01 4.732.047c-.85.037-1.434.175-1.94.372a3.904 3.904 0 00-1.42.925A3.94 3.94 0 00.45 2.76C.253 3.27.116 3.85.078 4.7c-.04.857-.05 1.13-.05 3.302s.01 2.444.047 3.297c.037.85.175 1.435.372 1.941.203.538.519 1.019.925 1.42.4.405.885.721 1.416.921.51.197 1.09.335 1.941.372.853.038 1.125.047 3.298.047 2.172 0 2.444-.01 3.297-.047.85-.037 1.435-.175 1.941-.372a4.093 4.093 0 002.341-2.34c.197-.51.335-1.092.372-1.942.038-.853.047-1.125.047-3.297 0-2.173-.003-2.445-.04-3.298zm-1.44 6.533c-.035.781-.166 1.203-.276 1.484a2.654 2.654 0 01-1.519 1.52c-.281.109-.706.24-1.484.274-.844.038-1.097.047-3.232.047-2.135 0-2.391-.01-3.232-.047-.782-.034-1.204-.165-1.485-.275a2.462 2.462 0 01-.919-.597 2.488 2.488 0 01-.597-.919c-.11-.28-.24-.706-.275-1.484-.037-.844-.047-1.097-.047-3.232 0-2.135.01-2.391.047-3.232.035-.781.166-1.203.275-1.485.128-.347.332-.662.6-.919.26-.265.572-.469.92-.597.28-.109.706-.24 1.484-.275.844-.037 1.097-.047 3.232-.047 2.138 0 2.39.01 3.232.047.781.035 1.203.166 1.484.275.347.128.663.332.92.597.265.26.468.572.596.92.11.28.241.706.275 1.484.038.844.047 1.097.047 3.232 0 2.135-.009 2.385-.046 3.229z"/><path d="M8.03 3.89a4.111 4.111 0 000 8.221 4.111 4.111 0 000-8.22zm0 6.777a2.667 2.667 0 110-5.333 2.667 2.667 0 010 5.333zM13.262 3.73a.96.96 0 11-1.92-.001.96.96 0 011.92 0z"/></g></symbol><symbol id="instagram" viewBox="0 0 42 42"><path fill-rule="evenodd" clip-rule="evenodd" d="M0 4a4 4 0 014-4h17l-.002.002h.007L21 0h17a4 4 0 014 4v17l-.002-.006V21.003L42 21v17a4 4 0 01-4 4H21l.002-.002h-.659V42H4a4 4 0 01-4-4V4zm20.994 9.997c-3.856 0-7.002 3.147-7.002 7.003 0 3.856 3.146 7.003 7.002 7.003s7.003-3.147 7.003-7.003c0-3.856-3.147-7.003-7.003-7.003zm0 17.778A10.76 10.76 0 0110.22 21a10.76 10.76 0 0110.774-10.775A10.76 10.76 0 0131.77 21a10.76 10.76 0 01-10.775 10.775zM32.211 12.3a2.513 2.513 0 01-2.517-2.516 2.513 2.513 0 012.517-2.517 2.513 2.513 0 012.325 3.48 2.514 2.514 0 01-2.325 1.553z"/></symbol><symbol id="lightning" viewBox="0 0 18 29"><path d="M16.422 10.41l-5.9 1.32 2.885-10.332c.25-.898-.923-1.473-1.45-.709L.45 17.41c-.433.63.13 1.473.86 1.29l5.258-1.324-2.876 10.341c-.247.891.906 1.459 1.439.724l12.12-16.72c.447-.618-.095-1.475-.829-1.311z"/></symbol><symbol id="likes" viewBox="0 0 24 24"><path fill-rule="evenodd" clip-rule="evenodd" d="M9.429 10h1.285l2.572-8a4.823 4.823 0 01.924.393c1.592.878 2.96 2.694 2.48 4.313L16.11 9l-.253 1H21v3.571L18.429 20h-7.715l-2.712-1.286V11l1.427-1zm5.71-5.536a4.78 4.78 0 00-1.242-1.097l-2.23 6.939-.224.694H9.744l-.742.52v6.562L10.94 19h6.813L20 13.379V11h-5.427l.315-1.245.832-3.294.005-.02.005-.02c.158-.53-.016-1.228-.59-1.957zM4.502 10h-1v10h3.5V10h-2.5zm0 1h1.5v8h-1.5v-8z"/></symbol><symbol id="lk-arrow" viewBox="0 0 15 9"><path fill-rule="evenodd" clip-rule="evenodd" d="M14.045.447a.625.625 0 01.043.883l-6.25 6.875a.625.625 0 01-.925 0L.663 1.33a.625.625 0 11.924-.841l5.788 6.366L13.162.49a.625.625 0 01.883-.042z"/></symbol><symbol id="location-brown" viewBox="0 0 14 19"><path fill-rule="evenodd" clip-rule="evenodd" d="M6.842 1C3.49 1 1 3.544 1 6.69c0 .656.268 1.627.763 2.751.482 1.095 1.263 2.298 2.065 3.437l.003.004a38.443 38.443 0 003.112 3.925 38.442 38.442 0 003.112-3.925l.002-.004c.803-1.139 1.584-2.342 2.066-3.437.495-1.124.763-2.095.763-2.75C12.886 3.563 10.216 1 6.842 1zM0 6.69C0 2.98 2.948 0 6.842 0c3.874 0 7.044 2.96 7.044 6.69 0 .868-.337 1.993-.848 3.154-.524 1.19-1.354 2.462-2.162 3.608a39.476 39.476 0 01-3.567 4.436l-.366.393-.366-.393a39.475 39.475 0 01-3.568-4.436c-.807-1.146-1.637-2.417-2.161-3.608C.336 8.683 0 7.558 0 6.69zm7.043-1.785c-1.059 0-1.916.85-1.916 1.785 0 .964.785 1.786 1.816 1.786 1.059 0 1.916-.85 1.916-1.786 0-.963-.785-1.785-1.816-1.785zM4.127 6.69c0-1.54 1.358-2.785 2.916-2.785A2.797 2.797 0 019.86 6.69c0 1.54-1.358 2.786-2.916 2.786A2.797 2.797 0 014.127 6.69z"/></symbol><symbol id="location-point" viewBox="0 0 32 32"><path fill-rule="evenodd" clip-rule="evenodd" d="M16.111 32s11.111-14.722 11.111-20.87C27.222 4.983 22.248 0 16.112 0 9.974 0 5 4.983 5 11.13 5 17.278 16.111 32 16.111 32zM16 15a4 4 0 100-8 4 4 0 000 8z"/></symbol><symbol id="location" viewBox="0 0 24 25"><path fill-rule="evenodd" clip-rule="evenodd" d="M11.842 4.5C8.49 4.5 6 7.044 6 10.19c0 .657.268 1.627.763 2.751.482 1.095 1.263 2.298 2.065 3.437l.003.004a38.443 38.443 0 003.112 3.925 38.443 38.443 0 003.112-3.925l.002-.004c.803-1.139 1.584-2.342 2.066-3.437.495-1.124.763-2.095.763-2.75 0-3.127-2.67-5.691-6.044-5.691zM5 10.19C5 6.48 7.948 3.5 11.842 3.5c3.874 0 7.044 2.96 7.044 6.69 0 .868-.337 1.993-.848 3.154-.524 1.19-1.354 2.462-2.162 3.608a39.472 39.472 0 01-3.567 4.436l-.366.393-.366-.393a39.478 39.478 0 01-3.568-4.436c-.807-1.146-1.637-2.417-2.161-3.608C5.336 12.183 5 11.058 5 10.19zm7.043-1.785c-1.059 0-1.916.85-1.916 1.785 0 .964.785 1.786 1.816 1.786 1.059 0 1.916-.85 1.916-1.786 0-.963-.785-1.785-1.816-1.785zM9.127 10.19c0-1.54 1.358-2.785 2.916-2.785a2.797 2.797 0 012.816 2.785c0 1.54-1.358 2.786-2.916 2.786a2.797 2.797 0 01-2.816-2.786z"/></symbol><symbol id="logo-new" viewBox="0 0 212 25"><g clip-path="url(#clip0_13064_462189)"><path d="M21.44 20.7a4.663 4.663 0 01-1.114 1.474 8.008 8.008 0 01-3.141 1.553c-1.893.458-3.86.557-5.791.29-3.258-.47-6.696-3.296-8.142-6.95-1.066-2.855-1.219-5.34-.458-7.94.599-2.18 1.446-4.144 3.12-5.69C7.669 1.89 9.262 1.203 11.699.99c2.82-.29 6.096.213 8.459 1.899.913.7 1.521 2.7 2.054 3.683h.599l-.749-4.247S19.09.076 13.08.076C4.776.076-.096 5.628-.096 12.515c.04 2.59.9 5.106 2.465 7.206 1.599 2.035 3.221 3.512 6.207 4.436 3.159.988 6.102 1.006 9.378.233 1.446-.352 2.97-.843 4.192-1.745l.764-4.122h-.689c-.205.751-.463 1.487-.773 2.204l-.008-.026zm16.615 3.448c-6.018 0-10.354-5.043-10.354-11.648C27.7 5.895 32.037.852 38.055.852c6.019 0 10.358 5.043 10.358 11.648 0 6.605-4.34 11.648-10.358 11.648zm0-24.087C30.59.061 25.18 5.613 25.18 12.5c0 6.887 5.39 12.439 12.875 12.439 7.486 0 12.876-5.552 12.876-12.439C50.93 5.613 45.526.061 38.055.061zm14.54 3.427h.6c1.524-2.25 5.788-2.63 11.273-2.63h5.9L51.687 24.45v.494h20.808l.521-3.433h-.614c-1.524 2.325-5.788 2.616-11.273 2.616h-6.56L73.322.535V.04H53.129l-.533 3.447zM94.056.395h.3c.455 0 .3.44-.018.933l-6.845 11.463-.075.14-1.144-1.899-6.486-9.907c-.38-.561-.227-.727.075-.727h.153V.07H75.14v.55c.686 0 1.524 0 2.21 1.208l7.705 11.945v7.646a4.975 4.975 0 01-.534 2.39 1.416 1.416 0 01-.481.488 1.47 1.47 0 01-.662.212v.439h5.79v-.44c-.916 0-1.676-1.334-1.676-2.459v-7.752l7.31-12.085c.299-.494.897-1.56 2.131-1.56V.07h-2.895l.017.325zm31.576.085c.761 0 1.219.497 1.446 1.128.157.549.234 1.116.231 1.686V12.5h-15.382V2.663c0-1.125.769-2.183 1.686-2.183V.06h-5.8V.48c.76 0 1.197.497 1.437 1.128.227.49.227 2.014.227 2.575v18.41c0 .872-.269 1.128-.479 1.329a1.888 1.888 0 01-1.197.537v.48h5.791v-.48c-.917 0-1.677-.997-1.677-2.122V13.41h15.382v8.296c0 1.053-.159 1.809-.44 2.125a1.951 1.951 0 01-1.237.628v.48h5.803v-.48c-.898 0-1.677-1.886-1.677-3.011V1.773c0-1.125.764-1.293 1.677-1.293V.06h-5.791V.48zm62.262 20.805l-.599-19.535c-.078-.843.682-1.186 1.599-1.186V.061h-4.124v.143l-9.064 21.22L164.737.061h-2.668l1.854 3.401-.174 18.945c0 1.195-.239 2.052-1.308 2.052h-.075v.48h3.521v-.48c-.988 0-1.198-.715-1.198-2.122l.042-17.195 9.78 19.093.688.704 9.681-23.02V1.9c0-.073.599 13.34.599 19.311 0 2.326-.913 3.247-1.752 3.247v.48h5.941v-.48h-.075c-.763 0-1.602-.927-1.677-3.174h-.023zm23.568.227c-1.365 2.645-5.171 2.63-10.735 2.63h-3.276V13.148h6.765c1.979 0 2.551.843 2.551 1.547v.07h.413v-3.881h-.413c0 .633-.572 1.476-2.551 1.476h-6.765V.853h2.896c5.258 0 9.052-.2 10.354 2.7h.701l-.599-3.488h-17.466v.63c.914 0 1.677.707 1.677 2.603v18.41c0 1.97-.763 2.755-1.677 2.755v.48h18.206l.533-3.43h-.614zm-64.723 2.636c-6.018 0-10.357-5.043-10.357-11.648 0-6.605 4.339-11.648 10.357-11.648 6.019 0 10.355 5.043 10.355 11.648 0 6.605-4.336 11.648-10.355 11.648zm0-24.087c-7.468 0-12.876 5.552-12.876 12.439 0 6.887 5.39 12.439 12.876 12.439s12.876-5.552 12.876-12.439c0-6.887-5.39-12.439-12.876-12.439z"/></g></symbol><symbol id="mail" viewBox="0 0 20 21"><path d="M2.5 3.313h15a.833.833 0 01.833.834V17.48a.833.833 0 01-.833.834h-15a.833.833 0 01-.833-.834V4.147a.833.833 0 01.833-.834zm14.167 3.532l-6.607 5.917-6.727-5.935v9.82h13.334V6.845zM3.759 4.98l6.292 5.552 6.2-5.552H3.76z"/></symbol><symbol id="menu-toggle" viewBox="0 0 23 16"><rect width="22.857" height="1.5" rx=".75"/><rect y="6.857" width="22.857" height="1.5" rx=".75"/><rect y="13.714" width="22.857" height="1.5" rx=".75"/></symbol><symbol id="menu-top-arrow" viewBox="0 0 21 9"><path d="M10.608 0L21 9H.215l10.393-9z"/></symbol><symbol id="metro" viewBox="0 0 22 15"><path d="M20.055 12.905L15.15 0 11 7.544 6.867 0 1.945 12.905H.5v1.955h7.426v-1.955h-1.11l1.076-3.213L11 15l3.108-5.309 1.075 3.213h-1.109v1.956H21.5v-1.955h-1.445z"/></symbol><symbol id="minus" viewBox="0 0 32 32"><path fill-rule="evenodd" clip-rule="evenodd" d="M5 15h22v2H5v-2z"/></symbol><symbol id="odnoklassniki" viewBox="0 0 42 42"><path d="M17.269 13.603c0-2.072 1.678-3.75 3.731-3.75s3.731 1.678 3.731 3.75A3.735 3.735 0 0121 17.334a3.741 3.741 0 01-3.731-3.73zM42 4.5v33c0 2.484-2.016 4.5-4.5 4.5h-33A4.501 4.501 0 010 37.5v-33C0 2.016 2.016 0 4.5 0h33C39.984 0 42 2.016 42 4.5zm-28.603 9.103c0 4.181 3.412 7.585 7.603 7.585 4.19 0 7.603-3.394 7.603-7.585C28.603 9.403 25.191 6 21 6a7.602 7.602 0 00-7.603 7.603zm16.36 8.503c-.432-.853-1.623-1.575-3.198-.337 0 0-2.128 1.687-5.559 1.687s-5.56-1.687-5.56-1.687c-1.574-1.238-2.765-.516-3.196.337-.74 1.51.103 2.222 2.006 3.469 1.622 1.04 3.863 1.425 5.306 1.575l-1.21 1.21c-1.705 1.687-3.327 3.328-4.471 4.471-1.65 1.65 1.003 4.294 2.663 2.681l4.471-4.49c1.707 1.706 3.347 3.347 4.472 4.49 1.65 1.613 4.313-1.003 2.681-2.68l-4.471-4.473-1.22-1.209c1.454-.15 3.666-.553 5.27-1.575 1.912-1.247 2.747-1.969 2.015-3.469z"/></symbol><symbol id="ok" viewBox="0 0 17 16"><g clip-path="url(#clip0_4206_2852)"><path d="M7.346 11.271c-1.263-.13-2.402-.435-3.378-1.184-.12-.093-.246-.183-.356-.287-.427-.402-.47-.863-.132-1.338.289-.407.774-.516 1.278-.282.098.045.19.102.28.162 1.817 1.226 4.314 1.26 6.138.055.181-.136.374-.247.598-.303.436-.11.842.047 1.075.421.267.427.264.844-.065 1.176a4.968 4.968 0 01-1.785 1.133c-.638.242-1.336.364-2.027.446.104.111.153.166.218.23.939.926 1.881 1.848 2.817 2.776.318.316.385.709.21 1.077-.193.402-.622.667-1.043.638-.267-.018-.475-.148-.66-.331-.708-.7-1.43-1.386-2.123-2.1-.202-.207-.299-.167-.477.013-.713.72-1.437 1.429-2.165 2.134-.327.316-.716.373-1.095.192-.403-.191-.66-.595-.64-1.001.014-.275.151-.485.343-.673.929-.91 1.855-1.823 2.781-2.735.062-.06.119-.125.208-.219z"/><path d="M8.116 8.099C5.862 8.09 4.014 6.257 4.026 4.04 4.04 1.8 5.89-.006 8.167 0c2.28.006 4.11 1.838 4.099 4.102-.012 2.212-1.873 4.004-4.15 3.997zm2.048-4.053c-.004-1.1-.897-1.977-2.015-1.978-1.128-.001-2.029.891-2.02 2.002.008 1.096.908 1.966 2.03 1.962 1.118-.004 2.009-.886 2.005-1.986z"/></g></symbol><symbol id="orders" viewBox="0 0 24 24"><path fill-rule="evenodd" clip-rule="evenodd" d="M9.233 5.124C8.69 6.07 8.5 7.227 8.5 8v.027h7V8c0-.773-.189-1.93-.733-2.876C14.237 4.204 13.385 3.5 12 3.5s-2.237.704-2.767 1.624zM7.5 8v.027H3l.083 1 .917 11h16l.917-11 .083-1h-4.5V8c0-.894-.211-2.237-.867-3.375C14.963 3.463 13.815 2.5 12 2.5s-2.963.963-3.633 2.125C7.71 5.763 7.5 7.105 7.5 8zM4.087 9.027l.833 10h14.16l.833-10H4.087zm11.318 3.266l.293-.406-.81-.585-.293.405-2.597 3.598-1.709-1.213-.407-.29-.58.816.409.29 2.112 1.5.405.287.29-.402 2.887-4z"/></symbol><symbol id="phone" viewBox="0 0 20 21"><path d="M7.805 9.715a8.797 8.797 0 003.293 3.293l.737-1.031a.833.833 0 011.078-.247 9.519 9.519 0 003.82 1.137.834.834 0 01.767.83v3.719a.834.834 0 01-.748.83c-.442.045-.887.068-1.335.068C8.283 18.314 2.5 12.53 2.5 5.397c0-.449.022-.894.068-1.335a.833.833 0 01.83-.749h3.718a.833.833 0 01.83.768 9.518 9.518 0 001.137 3.82.833.833 0 01-.246 1.077l-1.032.737zm-2.102-.547l1.584-1.131c-.45-.97-.758-2-.915-3.057H4.175c-.005.138-.007.278-.007.417-.001 6.213 5.035 11.25 11.249 11.25.139 0 .278-.003.416-.008V14.44a11.175 11.175 0 01-3.056-.914l-1.131 1.583a10.363 10.363 0 01-1.324-.625l-.048-.027a10.463 10.463 0 01-3.918-3.919l-.028-.048c-.239-.426-.448-.868-.625-1.323z"/></symbol><symbol id="pickup" viewBox="0 0 18 20"><path fill-rule="evenodd" clip-rule="evenodd" d="M9.236 1.062L9 .934l-.237.128-3.28 1.769a.5.5 0 00-.273.147L1.266 5.105l-.015.008-.255.137v9.502l.263.142 7.494 4.043a.42.42 0 00.018.01L9 19.07l.229-.123a.381.381 0 00.017-.01l7.494-4.043.263-.142V5.557 5.25l-.255-.137-.015-.008-7.496-4.043zm.26 16.604l6.506-3.51v-7.73l-6.534 3.878.028 7.362zm-1.028-7.399l-6.472-3.84v7.729l6.5 3.506-.028-7.394zM2.51 5.57l3.073-1.658 6.348 3.767L9 9.42 2.511 5.57zm4.1-2.212l6.301 3.74 2.575-1.528L9 2.07 6.611 3.358z"/></symbol><symbol id="pillow-1" viewBox="0 0 28 21"><path d="M26.96 17.17c-.193-.64-.06-1.44.127-2.542.182-1.072.403-2.41.403-4.126 0-1.71-.226-3.048-.403-4.125-.187-1.106-.32-1.903-.128-2.542.04-.133.084-.27.128-.403.275-.84.615-1.893-.054-2.744C26.674.231 26.212 0 25.656 0c-.526 0-1.047.216-1.553.423-.192.079-.389.162-.576.226-.605.211-1.347.31-2.335.31-.89 0-1.864-.079-2.896-.167A69.065 69.065 0 0013.753.6c-1.26 0-3.437.103-4.544.192-1.032.083-2.006.167-2.896.167-.988 0-1.73-.099-2.335-.31-.192-.064-.389-.147-.58-.226C2.886.22 2.365.005 1.838.005 1.284.005.822.236.463.693c-.664.85-.324 1.898-.054 2.739v.005c.044.138.089.265.123.393.192.64.059 1.44-.128 2.542C.221 7.444 0 8.782 0 10.498c0 1.71.226 3.048.403 4.125.187 1.106.32 1.903.128 2.542-.04.133-.084.26-.128.403-.265.846-.605 1.898.064 2.744.359.457.821.688 1.377.688.526 0 1.047-.216 1.554-.423.191-.079.388-.162.575-.226.605-.211 1.347-.31 2.335-.31.89 0 1.864.079 2.896.167a69.08 69.08 0 004.544.192c1.258 0 3.437-.103 4.543-.192 1.032-.083 2.006-.167 2.896-.167.988 0 1.73.099 2.335.31.192.069.389.148.58.226.502.207 1.023.423 1.554.423.556 0 1.018-.231 1.377-.688.669-.851.33-1.898.054-2.744a9.316 9.316 0 01-.128-.398zm-1.274.378c.044.148.093.3.137.433.232.713.38 1.24.163 1.514-.128.168-.231.177-.33.177-.265 0-.644-.157-1.047-.324-.207-.084-.423-.172-.649-.25-.752-.261-1.632-.384-2.773-.384-.944 0-1.942.083-3 .167h-.004a68.843 68.843 0 01-4.435.187c-1.102 0-3.26-.094-4.435-.187-1.058-.089-2.06-.172-3.005-.172-1.14 0-2.02.123-2.773.383a9.879 9.879 0 00-.649.256c-.403.167-.782.324-1.047.324-.098 0-.202-.014-.33-.177-.216-.27-.068-.801.168-1.514.044-.143.093-.285.137-.433.28-.934.113-1.907-.093-3.141-.177-1.028-.389-2.302-.389-3.905 0-1.602.212-2.876.384-3.904.207-1.234.369-2.207.093-3.141a15.36 15.36 0 00-.137-.433c-.231-.713-.379-1.24-.163-1.515.128-.167.232-.177.33-.177.265 0 .644.158 1.047.325.207.084.423.172.644.25.753.261 1.638.384 2.778.384.944 0 1.947-.083 3.01-.172a68.887 68.887 0 014.434-.187c1.102 0 3.255.094 4.435.187 1.058.089 2.06.172 3.005.172 1.14 0 2.02-.123 2.773-.383.226-.079.438-.167.649-.256.403-.167.782-.324 1.042-.324.099 0 .202.014.33.177.216.27.069.801-.163 1.514-.044.143-.093.285-.137.433-.28.934-.113 1.907.093 3.142.172 1.027.384 2.3.384 3.904 0 1.602-.212 2.876-.384 3.904-.206 1.239-.373 2.212-.093 3.146z"/><path d="M24.275 4.425c0-.02 0-.04.005-.059 0-.01 0-.024.005-.034l.01-.103c.004-.04.01-.08.019-.123.005-.025.01-.05.01-.07.005-.034.015-.068.02-.098.004-.024.01-.049.014-.078l.015-.06.03-.098c.01-.02.014-.044.024-.064a1.752 1.752 0 01.24-.462.726.726 0 01.094-.108l.994-.885-1.19.605s-.02.01-.054.034c-.025.02-.07.05-.123.089-.138.118-.26.26-.364.418a2.608 2.608 0 00-.344.777v.005l-.015.063c-.015.06-.03.114-.044.182l-.015.079-.03.177-.024.226v.05c0 .029-.005.058-.005.093-.005.059-.005.118-.01.182v.3l.005.098c0 .064.005.133.005.202.005.103.015.206.02.31l.03.314c.029.315.068.634.107.969.015.113.025.22.04.334l.02.192c.019.162.034.324.053.487a23.54 23.54 0 01.113 2.099v.034l-.005.32c0 .108-.004.216-.01.32v.03c-.004.21-.019.427-.029.638l-.005.06c-.005.093-.015.181-.02.27l-.029.428c-.01.132-.024.27-.034.398-.01.093-.02.187-.025.28l-.128 1.303c-.04.413-.073.816-.088 1.195l-.005.28v.093c0 .06 0 .123.01.192l.02.182c0 .005 0 .015.004.02l.015.069c0 .015.005.024.005.04l.015.083.03.118c.044.172.098.339.166.506a2.635 2.635 0 00-.364-.216 4.052 4.052 0 00-1.017-.344h-.005l-.084-.015c-.074-.015-.152-.03-.236-.044l-.103-.015-.236-.03-.3-.024h-.064c-.04 0-.079-.005-.123-.005-.079-.005-.152-.005-.24-.01h-.537c-.088 0-.172.005-.265.005-.133.005-.266.015-.408.02l-.413.03c-.413.029-.831.068-1.274.107-.147.015-.295.025-.437.04l-.251.02c-.212.019-.428.034-.64.053a38.293 38.293 0 01-2.749.113h-.048l-.418-.005c-.128 0-.25-.004-.369-.004a3.166 3.166 0 01-.457 1.057c.103.005.211.01.315.01h.03c.152.005.314.01.461.01l.462.01h.03a28.017 28.017 0 002.91-.168l.463-.054.452-.06c.399-.053.782-.112 1.156-.166.182-.03.364-.054.536-.079l.388-.054.379-.05c.078-.009.157-.019.23-.024l.129-.014.339-.03.221-.015c.04 0 .084-.005.123-.005l.305-.01h.182c.04 0 .074 0 .118.005.024 0 .05 0 .079.005.014 0 .03 0 .044.005l.138.01c.054.005.103.01.162.02.03.005.064.01.093.01.044.005.089.014.128.02l.098.014.074.015.128.03c.03.01.059.014.084.024l.103.03c.265.083.428.166.501.21a.918.918 0 01.138.094l1.042.89.354.384-.57-1.111s-.024-.055-.069-.148a3.837 3.837 0 01-.29-1.136l-.005-.103v-.025h.005l-.01-.147.01-.143.015-.142c.005-.03.005-.064.01-.094l.04-.25.043-.271.163-.875c.078-.433.157-.86.226-1.303.04-.27.073-.492.098-.698l.015-.118.03-.241.034-.364.014-.172c.015-.182.03-.374.035-.566v-.02c.005-.117.01-.24.01-.353l.005-.182.005-.172v-.02a16.3 16.3 0 00-.168-2.218l-.054-.354-.059-.344c-.054-.305-.113-.6-.167-.88-.03-.138-.054-.275-.078-.408l-.055-.295-.049-.29c-.01-.06-.02-.118-.024-.177l-.015-.098-.03-.261-.014-.167c0-.03-.005-.064-.005-.094l-.01-.23v-.138a.335.335 0 00.015-.094zM6.244 4.002c-.417.064-1.229-.098-1.642-.216a.534.534 0 00-.123-.02 1.297 1.297 0 00-1.145.566c-.27.398-.31.895-.109 1.332.005.015.015.03.02.045.005.004.266.481.157.953a.572.572 0 00.487.694.575.575 0 00.625-.438c.191-.826-.163-1.564-.256-1.74a.23.23 0 01.02-.207c.03-.04.064-.064.103-.069.315.084 1.327.33 2.036.221a.563.563 0 00.476-.644.57.57 0 00-.649-.477z"/></symbol><symbol id="pillow-2" viewBox="0 0 22 21"><path d="M21.19 17.712c-.172-.496-.255-1.103-.255-1.913 0-.732.065-1.529.135-2.381.078-.945.157-1.922.157-2.923 0-1-.079-1.977-.157-2.927-.07-.847-.135-1.644-.135-2.376 0-.81.079-1.417.255-1.913a9.92 9.92 0 01.185-.472c.172-.417.348-.843.348-1.283 0-.463-.195-.848-.57-1.144-.709-.556-1.575-.273-2.27-.047h-.004c-.112.038-.218.07-.325.102-.523.158-1.176.047-2.08-.106C15.555.176 12.817 0 10.659 0 8.43 0 6.21.171 5.248.333c-.903.153-1.557.26-2.08.107L2.84.338C2.144.111 1.274-.167.57.384.196.681 0 1.065 0 1.528c0 .436.176.867.347 1.283.065.158.13.32.186.473.171.495.254 1.102.254 1.913 0 .732-.064 1.528-.134 2.38C.574 8.522.496 9.5.496 10.5s.078 1.978.157 2.923l.162-.014-.162.018c.07.848.134 1.645.134 2.376 0 .81-.078 1.418-.254 1.913-.056.158-.12.32-.186.473-.171.416-.347.843-.347 1.282 0 .464.195.848.57 1.145.708.555 1.574.273 2.27.046.115-.037.222-.07.328-.102.523-.153 1.177-.046 2.08.107.958.162 3.182.333 5.41.333 2.5 0 4.979-.195 5.812-.334.903-.152 1.556-.259 2.08-.106.111.032.222.07.329.102.694.227 1.565.505 2.27-.046.379-.297.569-.686.569-1.145 0-.435-.176-.866-.348-1.282-.06-.163-.13-.32-.18-.477zM19.944 7.665c.074.927.153 1.88.153 2.835 0 .954-.079 1.908-.153 2.835-.07.87-.139 1.69-.139 2.468 0 .94.102 1.668.315 2.284.065.185.139.361.208.532.135.33.264.64.264.852 0 .08-.009.153-.139.255-.217.172-.643.051-1.222-.139a33.984 33.984 0 00-.357-.11c-.773-.232-1.575-.098-2.589.073-.917.153-3.196.315-5.623.315-2.163 0-4.307-.162-5.22-.315-.63-.106-1.176-.194-1.681-.194a3.3 3.3 0 00-.908.12c-.12.037-.245.079-.357.111-.578.19-1.005.306-1.222.14-.13-.103-.14-.177-.14-.256 0-.212.13-.523.265-.852.07-.171.143-.347.208-.532.218-.621.315-1.343.315-2.284 0-.778-.07-1.598-.139-2.468-.074-.922-.153-1.876-.153-2.83 0-.954.08-1.909.153-2.83.074-.871.14-1.696.14-2.469 0-.94-.103-1.667-.316-2.283-.065-.186-.139-.362-.208-.533-.135-.329-.264-.64-.264-.852 0-.079.009-.153.139-.255.217-.171.644-.051 1.222.139l.352.111c.774.232 1.575.097 2.59-.074.894-.148 3.256-.315 5.22-.315 2.07 0 4.77.171 5.622.315 1.015.171 1.816.306 2.59.074.124-.037.254-.079.356-.111.579-.19 1.005-.306 1.223-.139.13.102.139.176.139.255 0 .213-.13.523-.264.852-.07.171-.144.347-.209.533-.217.62-.315 1.343-.315 2.283 0 .769.07 1.589.144 2.46z"/><path d="M18.707 4.497c0-.023 0-.046.005-.064l.01-.14.013-.125c.005-.023.005-.046.01-.069l.013-.102.014-.074.01-.056a.812.812 0 01.023-.101c.004-.024.009-.042.014-.065a.393.393 0 01.023-.079c.06-.204.12-.329.148-.384a.896.896 0 01.065-.107l.713-.899-.936.667s-.014.01-.041.037c-.019.019-.051.047-.088.093-.098.116-.18.255-.255.412-.102.213-.18.473-.24.76l-.015.065c-.01.055-.018.11-.028.176-.004.028-.004.055-.009.079-.01.055-.014.11-.018.17l-.019.228v.046c0 .033-.005.06-.005.093-.004.055-.004.116-.004.18v.389c0 .065.005.13.005.2l.013.305.019.31c.023.311.046.626.074.96l.028.328.014.19c.014.158.023.32.037.477.018.255.027.468.041.686.024.537.037.977.037 1.39v.351c0 .111-.004.218-.004.32v.028c-.005.208-.014.421-.019.63v.06l-.014.268c-.004.14-.014.278-.023.422-.004.13-.014.264-.023.393-.005.093-.014.186-.018.278l-.088 1.283c-.028.408-.051.802-.06 1.177l-.005.273v.093c0 .06 0 .12.004.185l.014.176v.018l.014.107c.005.028.005.051.01.079l.018.116c.046.254.111.495.204.755.074.208.153.356.19.44.05.097.083.143.083.152l.25.38-.338-.472s-.01-.014-.037-.042c-.019-.018-.046-.05-.093-.088a1.884 1.884 0 00-.412-.255 3.407 3.407 0 00-.76-.24c-.023-.005-.041-.01-.064-.014a7.362 7.362 0 00-.176-.028c-.028-.005-.056-.005-.08-.01a1.95 1.95 0 00-.17-.018l-.227-.018h-.047c-.032 0-.06-.005-.092-.005-.056-.005-.116-.005-.181-.005h-.389c-.065 0-.13.005-.2.005l-.305.014-.31.018c-.31.024-.625.047-.959.074l-.329.028-.19.014c-.157.014-.32.023-.477.037-.255.019-.468.028-.685.042-.538.023-.978.037-1.39.037h-.352c-.11 0-.217-.005-.32-.005h-.027c-.209-.004-.422-.014-.63-.018h-.06l-.269-.014c-.139-.005-.278-.014-.421-.023l-.2-.014a2.41 2.41 0 01-.708.727l.125.014c.264.028.482.05.69.07.037.004.079.004.116.009.079.009.157.014.236.018l.357.023c.055.005.115.005.171.01.18.009.366.023.556.023h.018c.116.004.236.009.348.009l.347.005H11c.5-.005.996-.024 1.469-.056.25-.018.5-.042.713-.06l.347-.037.338-.042c.301-.037.588-.079.866-.116l.408-.055.579-.074c.06-.005.116-.014.176-.019l.357-.032c.055-.005.11-.005.166-.01.033 0 .06-.004.093-.004l.232-.005H16.966c.023 0 .046 0 .065.005l.139.009.125.014c.023.005.046.005.07.01l.101.013.074.014.056.01c.032.004.07.013.102.022.023.005.041.01.064.014a.394.394 0 01.08.023c.203.06.328.12.384.149.07.037.106.064.106.064l.843.667.241.366-.477-1.31s-.019-.051-.046-.149a4.447 4.447 0 01-.112-.44 4.7 4.7 0 01-.092-.699l-.005-.102v-.028h.005l-.005-.143.005-.149c.004-.046.004-.092.01-.139.004-.032.004-.06.008-.092l.028-.25.148-1.13c.056-.426.111-.843.158-1.283.028-.264.05-.482.07-.69.004-.037.004-.08.008-.116.01-.079.014-.158.02-.236l.022-.357c.005-.056.005-.116.01-.171.009-.181.023-.366.023-.556v-.019c.004-.116.009-.236.009-.347l.005-.348v-.023a24.96 24.96 0 00-.056-1.468c-.019-.25-.042-.5-.06-.713l-.037-.348-.042-.338c-.037-.3-.079-.588-.116-.866a77.811 77.811 0 00-.055-.407l-.075-.58c-.004-.06-.013-.115-.018-.175l-.032-.357c-.005-.056-.005-.111-.01-.167 0-.032-.004-.06-.004-.092l-.005-.232v-.139c.01-.018.01-.05.01-.079zM5.98 3.173c-.394.06-1.158-.093-1.547-.204a.503.503 0 00-.116-.019 1.222 1.222 0 00-1.08.533 1.268 1.268 0 00-.101 1.255c.004.014.014.028.018.042.005.005.25.454.148.898a.539.539 0 00.403.644c.019.005.037.01.056.01a.541.541 0 00.588-.413c.18-.778-.153-1.473-.24-1.64a.217.217 0 01.018-.194c.028-.037.06-.06.097-.065.297.079 1.25.31 1.918.209a.53.53 0 00.449-.607.538.538 0 00-.612-.45z"/></symbol><symbol id="placemark" viewBox="0 0 24 24"><path fill-rule="evenodd" clip-rule="evenodd" d="M11.995 5.25C9.26 5.25 7.25 7.315 7.25 9.863c0 .502.21 1.294.634 2.256.404.917 1.065 1.939 1.758 2.923l.004.005a32.964 32.964 0 002.436 3.107c.876-.99 1.69-2.027 2.436-3.107l.003-.005c.694-.984 1.355-2.006 1.759-2.923.424-.962.634-1.754.634-2.256 0-2.517-2.154-4.613-4.92-4.613zM5.75 9.863c0-3.393 2.7-6.113 6.245-6.113 3.514 0 6.419 2.69 6.419 6.113 0 .819-.313 1.842-.761 2.86-.468 1.062-1.202 2.184-1.903 3.18a34.511 34.511 0 01-3.119 3.877l-.549.59-.55-.59a34.518 34.518 0 01-3.118-3.877c-.701-.995-1.435-2.118-1.903-3.18-.448-1.018-.761-2.041-.761-2.86zm6.42-1.23c-.76 0-1.344.61-1.344 1.23 0 .661.539 1.23 1.256 1.23.76 0 1.343-.61 1.343-1.23 0-.66-.539-1.23-1.256-1.23zm-2.844 1.23c0-1.525 1.335-2.73 2.843-2.73a2.74 2.74 0 012.756 2.73c0 1.526-1.335 2.73-2.843 2.73a2.74 2.74 0 01-2.756-2.73z"/></symbol><symbol id="plus" viewBox="0 0 32 32"><path fill-rule="evenodd" clip-rule="evenodd" d="M15 17v10h2V17h10v-2H17V5h-2v10H5v2h10z"/></symbol><symbol id="point" viewBox="0 0 8 8"><circle cx="4" cy="4" r="4"/></symbol><symbol id="preloader" viewBox="0 0 24 24"><path fill-rule="evenodd" clip-rule="evenodd" d="M12 4.5a7.5 7.5 0 107.5 7.5h3c0 5.799-4.701 10.5-10.5 10.5S1.5 17.799 1.5 12 6.201 1.5 12 1.5v3z"/></symbol><symbol id="profile" viewBox="0 0 24 24"><path fill-rule="evenodd" clip-rule="evenodd" d="M9.063 8.25a3 3 0 116 0 3 3 0 01-6 0zm3-4.5a4.5 4.5 0 00-3.111 7.752 5.905 5.905 0 00-4.202 5.655v.938a2.156 2.156 0 002.156 2.156H17.22a2.156 2.156 0 002.156-2.156v-.938a5.907 5.907 0 00-4.202-5.655 4.5 4.5 0 00-3.111-7.752zM7.541 14.041a4.407 4.407 0 013.116-1.29h2.813a4.407 4.407 0 014.406 4.406v.938a.656.656 0 01-.656.656H6.906a.656.656 0 01-.656-.656v-.938c0-1.168.464-2.29 1.29-3.116z"/></symbol><symbol id="reload" viewBox="0 0 24 24"><path fill-rule="evenodd" clip-rule="evenodd" d="M19.453 2.457l.045.498.5 5.5.054.597-.597-.054-5.5-.5-.498-.045.09-.996.498.045 4.226.384A7.5 7.5 0 005.046 9.19l-.187.464-.927-.375.187-.463a8.5 8.5 0 0114.74-1.835l-.357-3.936-.045-.498.996-.09zm.428 12.727l.188-.463-.928-.375-.187.463a7.5 7.5 0 01-13.225 1.305l4.226.384.498.045.09-.996-.498-.045-5.5-.5-.597-.054.054.597.5 5.5.045.498.996-.09-.045-.498-.358-3.936a8.499 8.499 0 0014.741-1.835z"/></symbol><symbol id="review" viewBox="0 0 24 24"><path fill-rule="evenodd" clip-rule="evenodd" d="M4.962 12.533C4.962 8.11 8.65 4.5 13.23 4.5S21.5 8.11 21.5 12.533c0 2.216-.854 3.94-2.256 5.118-1.41 1.186-3.413 1.849-5.744 1.849H4.232l2.116-2.057.302-.293-.237-.348c-.886-1.296-1.451-2.653-1.451-4.269zM13.23 3.5c-5.107 0-9.27 4.032-9.27 9.033 0 1.72.56 3.167 1.394 4.481L2.65 19.641l-.883.859H13.5c2.512 0 4.76-.714 6.388-2.083 1.638-1.377 2.612-3.387 2.612-5.884 0-5.001-4.163-9.033-9.27-9.033zm5.269 7H8v-1h10.5v1zm-4.5 3H8v-1h6v1z"/></symbol><symbol id="search" viewBox="0 0 24 24"><path fill-rule="evenodd" clip-rule="evenodd" d="M5.25 10.938c0-3.076 2.541-5.688 5.586-5.688 3.061 0 5.587 2.526 5.587 5.586 0 3.085-2.447 5.689-5.587 5.689-3.154 0-5.586-2.518-5.586-5.587zm5.586-7.188c-3.904 0-7.086 3.315-7.086 7.188 0 3.881 3.088 7.087 7.086 7.087 1.542 0 2.944-.49 4.087-1.313l3.135 3.135c.203.204.612.204.817 0 .204-.204.204-.613 0-.818l-3.07-3.068a7.262 7.262 0 002.118-5.125c0-3.889-3.197-7.086-7.087-7.086z"/></symbol><symbol id="share" viewBox="0 0 24 24"><path fill-rule="evenodd" clip-rule="evenodd" d="M14 6.842a1.842 1.842 0 103.684 0 1.842 1.842 0 00-3.684 0zM15.842 4a2.842 2.842 0 00-2.648 3.876l-3.21 1.783a2.842 2.842 0 10-.505 4.19l3.724 2.253a2.842 2.842 0 10.53-.848l-3.535-2.138c.307-.454.486-1 .486-1.59 0-.355-.065-.696-.184-1.01l3.217-1.787A2.842 2.842 0 1015.842 4zM6 11.526a1.842 1.842 0 103.684 0 1.842 1.842 0 00-3.684 0zM15.842 19a1.842 1.842 0 110-3.684 1.842 1.842 0 010 3.684z"/></symbol><symbol id="sizes" viewBox="0 0 20 20"><path d="M16.334 4.732L13.097 7.97h2.216a.781.781 0 110 1.562h-2.93a1.955 1.955 0 01-1.953-1.953v-2.93a.781.781 0 111.562 0v2.216l3.237-3.237a.781.781 0 011.105 1.105zM8.828 16.016c.432 0 .781-.35.781-.782v-2.93a1.955 1.955 0 00-1.953-1.952h-2.93a.781.781 0 100 1.562h2.216l-3.237 3.237a.781.781 0 101.105 1.105l3.237-3.237v2.215c0 .432.35.782.781.782zm10.39-2.266c.432 0 .782-.35.782-.781V3.125A3.128 3.128 0 0016.875 0H3.125A3.128 3.128 0 000 3.125v13.75A3.128 3.128 0 003.125 20h13.75A3.128 3.128 0 0020 16.875a.781.781 0 10-1.563 0c0 .861-.7 1.563-1.562 1.563H3.125a1.564 1.564 0 01-1.563-1.563V3.125c0-.862.701-1.563 1.563-1.563h13.75c.861 0 1.563.701 1.563 1.563v9.844c0 .431.35.781.78.781z"/></symbol><symbol id="social-fb" viewBox="0 0 33 32"><path d="M.01 4a4 4 0 014-4h24a4 4 0 014 4v24a4 4 0 01-4 4h-5.92V19.6h4.16l.62-4.82h-4.78V11.7c0-1.4.4-2.36 2.4-2.36h2.56V5.02c-.44-.06-1.96-.18-3.72-.18-3.7 0-6.22 2.24-6.22 6.38v3.56h-4.18v4.82h4.18V32H4a4 4 0 01-4-4v-2.969L.01 7V4z"/></symbol><symbol id="social-ig" viewBox="0 0 32 32"><path d="M16.035 19.335a3.333 3.333 0 010-6.666 3.334 3.334 0 110 6.666z"/><path fill-rule="evenodd" clip-rule="evenodd" d="M24.18 20.046c-.043.977-.207 1.504-.344 1.856a3.317 3.317 0 01-1.898 1.898l-.356.122c-.16.047-.348.093-.578.13a7.69 7.69 0 01-.922.092c-1.055.047-1.371.059-4.039.059l-2.246-.007-.473-.007-.754-.02-.57-.025c-.977-.043-1.504-.207-1.855-.344a2.983 2.983 0 01-.743-.395 3.07 3.07 0 01-.406-.35 3.071 3.071 0 01-.746-1.15l-.098-.275-.09-.323a5.077 5.077 0 01-.082-.46 6.928 6.928 0 01-.074-.797c-.047-1.055-.058-1.372-.058-4.04 0-2.669.011-2.99.058-4.04l.028-.417.039-.335a5.23 5.23 0 01.16-.768l.117-.336a3.01 3.01 0 01.496-.87c.078-.098.164-.191.254-.279a3.104 3.104 0 011.148-.746c.352-.137.883-.3 1.856-.344 1.055-.047 1.371-.058 4.039-.058 2.676 0 2.992.011 4.043.058.977.043 1.504.207 1.855.344.434.16.829.414 1.149.746.332.325.586.715.746 1.15.137.35.3.882.344 1.855.027.593.043.953.05 1.629l.008 2.41c0 2.67-.011 2.982-.058 4.037zm-8.145-9.182a5.139 5.139 0 10.004 10.277 5.139 5.139 0 00-.004-10.277zm6.531-.026l.012-.177a1.2 1.2 0 00-2.11-.78 1.198 1.198 0 102.023 1.223c.036-.084.06-.173.075-.266z"/><path fill-rule="evenodd" clip-rule="evenodd" d="M4 0C1.79 0 0 1.79 0 4v24c0 2.21 1.79 4 4 4h24c2.21 0 4-1.79 4-4V4c0-2.21-1.79-4-4-4H4zm21.98 11.88c-.046-1.063-.218-1.793-.464-2.426a4.881 4.881 0 00-1.157-1.774 4.92 4.92 0 00-1.77-1.153 6.315 6.315 0 00-1.007-.297 7.743 7.743 0 00-.754-.118 10.45 10.45 0 00-.664-.05c-.527-.024-.875-.04-1.418-.05L16.852 6h-.817c-1.73 0-2.496.005-3.098.02l-1.023.039c-1.062.046-1.793.218-2.426.465A4.879 4.879 0 007.715 7.68a4.923 4.923 0 00-1.152 1.77c-.247.637-.418 1.363-.465 2.426-.051 1.07-.063 1.41-.063 4.126 0 2.715.012 3.055.059 4.122.047 1.063.218 1.793.465 2.426a4.932 4.932 0 001.156 1.774 4.92 4.92 0 001.77 1.152c.636.247 1.363.419 2.425.465 1.067.047 1.406.059 4.125.059 2.715 0 3.055-.012 4.121-.059 1.063-.046 1.793-.218 2.426-.465a5.115 5.115 0 002.926-2.926c.156-.4.281-.837.363-1.37a8.8 8.8 0 00.102-1.056c.047-1.067.058-1.407.058-4.122s-.004-3.055-.05-4.122z"/></symbol><symbol id="social-ok" viewBox="0 0 32 32"><path d="M13.157 10.364A2.853 2.853 0 0116 7.507a2.853 2.853 0 012.843 2.857A2.846 2.846 0 0116 13.207a2.85 2.85 0 01-2.843-2.843zM32 3.43V28.57A3.43 3.43 0 0128.571 32H3.43A3.43 3.43 0 010 28.571V3.43A3.43 3.43 0 013.429 0H28.57A3.43 3.43 0 0132 3.429zm-21.793 6.935c0 3.186 2.6 5.779 5.793 5.779s5.793-2.586 5.793-5.779a5.792 5.792 0 10-11.586 0zm12.464 6.479c-.328-.65-1.235-1.2-2.435-.257 0 0-1.622 1.285-4.236 1.285s-4.236-1.285-4.236-1.285c-1.2-.943-2.107-.393-2.435.257-.565 1.15.078 1.693 1.528 2.643 1.236.793 2.943 1.085 4.043 1.2l-.921.921c-1.3 1.286-2.536 2.536-3.408 3.407-1.257 1.257.765 3.272 2.029 2.043l3.407-3.421c1.3 1.3 2.55 2.55 3.407 3.421 1.257 1.229 3.286-.764 2.043-2.043l-3.407-3.407-.929-.921c1.108-.115 2.793-.422 4.015-1.2 1.457-.95 2.093-1.5 1.535-2.643z"/></symbol><symbol id="social-vk" viewBox="0 0 32 32"><path d="M4 0a4 4 0 00-4 4v24a4 4 0 004 4h24a4 4 0 004-4V4a4 4 0 00-4-4H4zm10.205 8.557c.906-.01 1.792.09 2.225.103 1.602.046 1.885.857 1.865 1.524-.03.976-.658 5.107.506 5.51 1.696-.908 2.834-3.725 3.662-5.51.419-.904.353-.948 1.318-.95l3.836-.005c.924-.002.888-.034 1.184.343.688.878-2.172 4.528-3.096 5.537-1.705 1.863-.71 2.584-.435 2.84 1.272 1.186 2.501 2.416 3.265 3.551.608.902.357 1.742-.416 1.773l-4.113.17c-1.365.056-3.488-2.39-3.826-2.924-.274-.44-1.595-.99-1.72.133l-.173 1.569c-.126 1.12-.954 1.095-1.607 1.123-4.525.194-6.066-1.528-8.344-4.07-1.67-2.362-3.264-4.737-4.584-7.583-.395-.851-.605-1.476-.658-2.138.664-.52 2.996-.296 4.562-.33.429-.01.717.236.944.724.882 1.907 1.844 3.78 3.117 5.436.554.51 1.044.698 1.289-.34.142-.013.13-1.732.139-3.03.005-.89-.1-1.958-1.608-2.45.305-.8 1.503-.994 2.668-1.006z"/></symbol><symbol id="social-ze" viewBox="0 0 32 32"><path fill-rule="evenodd" clip-rule="evenodd" d="M4 0a4 4 0 00-4 4v24a4 4 0 004 4h24a4 4 0 004-4V4a4 4 0 00-4-4H4zm9.744 13.744C15.43 12.058 15.725 9.525 15.777 5h.657c.052 4.525.348 7.058 2.034 8.744 1.659 1.66 4.139 1.972 8.532 2.03v.663c-4.393.059-6.873.371-8.532 2.03-1.66 1.66-1.972 4.14-2.031 8.533h-.662c-.06-4.393-.372-6.873-2.031-8.532-1.686-1.686-4.219-1.982-8.744-2.034v-.657c4.525-.052 7.058-.347 8.744-2.033z"/></symbol><symbol id="star-fill" viewBox="0 0 16 16"><path d="M10.308 5.208L8 2 5.692 5.208 2 6.125l2.308 2.75V13L8 11.625 11.692 13V8.875L14 6.125l-3.692-.917z"/></symbol><symbol id="star" viewBox="0 0 16 16"><path fill-rule="evenodd" clip-rule="evenodd" d="M8 2l.407.57 1.857 2.597 2.964.74.773.194-.51.612-1.848 2.216v4.073l-.676-.253-2.966-1.112-2.967 1.112-.676.253V8.929L2.51 6.713 2 6.1l.773-.193 2.964-.74 1.857-2.599L8 2zm0 1.72L6.444 5.898l-.107.15-.178.045-2.37.592 1.454 1.743.116.139v2.992l2.467-.924.176-.066.175.066 2.467.924V8.567l.116-.14 1.453-1.742-2.369-.592-.178-.045-.107-.15L8 3.72z"/></symbol><symbol id="store" viewBox="0 0 32 32"><path fill-rule="evenodd" clip-rule="evenodd" d="M26 10H6v11.158h3V13h14v8.158h3V10zM6 8H4v15.158h24V8H6zm9 7h-4v6h4v-6zm2 0v6h4v-6h-4z"/></symbol><symbol id="swipe-control" viewBox="0 0 21 26"><path d="M18.378 7.453c-.423 0-.762.085-1.101.254-.423-.847-1.186-1.355-2.117-1.355-.423 0-.762.085-1.101.254-.423-.847-1.186-1.355-2.117-1.355-.339 0-.593.085-.847.169V2.371A2.367 2.367 0 008.724 0c-1.27 0-2.287 1.016-2.287 2.371v12.195l-2.625-1.355a3.321 3.321 0 00-1.524-.339 2.278 2.278 0 00-2.287 2.287c0 .593.254 1.186.678 1.609l6.945 6.775c1.609 1.609 3.726 2.456 6.013 2.456 3.98 0 7.199-3.218 7.199-7.114V9.823c-.085-1.27-1.101-2.371-2.456-2.371zM7.876 15.668V2.372c0-.508.423-.847.847-.847.508 0 .847.423.847.847v10.163c0 .423.339.762.762.762s.762-.339.762-.762V7.708c0-.508.423-.847.847-.847.508 0 .847.423.847.847v4.827c0 .423.339.762.762.762s.762-.339.762-.762V8.809c0-.508.423-.847.847-.847.508 0 .847.423.847.847v3.726c0 .423.339.762.762.762s.762-.339.762-.762v-2.71c0-.508.423-.847.847-.847.508 0 .847.423.847.847v9.062a5.674 5.674 0 01-5.674 5.674c-1.863 0-3.642-.762-4.997-2.033l-6.86-6.945a.77.77 0 01-.254-.593.76.76 0 01.762-.762c.339 0 .593.085.847.169l3.726 1.863c.254.085.508.085.678 0 .339-.085.423-.339.423-.593z"/></symbol><symbol id="tg" viewBox="0 0 23 19"><path fill-rule="evenodd" clip-rule="evenodd" d="M.95 9.106l4.88 1.59.045.006L8.16 17.03s.215.445.474.577c.167.108.495.022 1.136-.62a41.853 41.853 0 012.565-2.348c1.678 1.159 3.485 2.44 4.264 3.111a1.356 1.356 0 00.987.382c.74-.028.947-.84.947-.84S21.985 3.403 22.1 1.541l.014-.186a3.32 3.32 0 00.014-.237 1.558 1.558 0 00-.042-.43.46.46 0 00-.314-.343c-.315-.12-.85.06-.85.06S1.986 7.212.904 7.966c-.233.162-.311.256-.35.367-.187.536.396.773.396.773zm10.794-1.987l5.086-2.383-.076.146C14.3 7.35 9 12.062 9 12.062s-.036.04-.057.09l-.009-.006-.304 3.238-1.833-5.073.004-.086c1.056-.667 2.987-1.883 4.943-3.106zm-1.881 5.834c.397.268.882.596 1.41.956l-.567.573c-.372.375-.746.747-1.089 1.083l.246-2.612z"/></symbol><symbol id="trash" viewBox="0 0 24 24"><path fill-rule="evenodd" clip-rule="evenodd" d="M9.55 5a2.5 2.5 0 014.9 0h-4.9zM8.535 5a3.5 3.5 0 016.93 0H20v1h-1.5v16h-13V6H4V5h4.535zM6.5 21V6h11v15h-11zm4-10.5v7h-1v-7h1zm4 7v-7h-1v7h1z"/></symbol><symbol id="tumb_down" viewBox="0 0 13 12"><path d="M.583 7h1.75V0H.583a.594.594 0 00-.42.163.594.594 0 00-.163.42v5.834c0 .163.054.3.163.408A.573.573 0 00.583 7zm3.092.758l3.733 3.734a.284.284 0 00.175.081.253.253 0 00.199-.058l.501-.373a.848.848 0 00.292-.409.85.85 0 00.035-.501l-.677-2.649h3.734c.319 0 .59-.116.816-.35.234-.225.35-.497.35-.816V5.192a1.08 1.08 0 00-.093-.444L10.943.362A.575.575 0 0010.395 0H4.083a.594.594 0 00-.42.163.594.594 0 00-.163.42v6.755c0 .164.058.304.175.42z"/></symbol><symbol id="tumb_up" viewBox="0 0 13 12"><path d="M.583 4.575h1.75v7H.583a.594.594 0 01-.42-.163.594.594 0 01-.163-.42V5.158c0-.163.054-.3.163-.408a.573.573 0 01.42-.175zm3.092-.758L7.408.083a.284.284 0 01.175-.081.253.253 0 01.199.058l.501.373c.14.11.238.245.292.409a.85.85 0 01.035.501l-.677 2.649h3.734c.319 0 .59.116.816.35.234.225.35.497.35.816v1.225c0 .156-.03.304-.093.444l-1.797 4.386a.576.576 0 01-.548.362H4.083a.594.594 0 01-.42-.163.594.594 0 01-.163-.42V4.237c0-.164.058-.304.175-.42z"/></symbol><symbol id="vk" viewBox="0 0 16 16"><g clip-path="url(#clip0_4206_12585)"><path d="M15.915 11.682a1.133 1.133 0 00-.054-.104c-.278-.5-.808-1.114-1.591-1.842l-.017-.016-.008-.008-.008-.009h-.009c-.355-.339-.58-.566-.675-.683-.172-.222-.21-.447-.116-.675.066-.172.316-.536.75-1.091.227-.294.408-.53.54-.708.962-1.278 1.378-2.094 1.25-2.45l-.05-.082c-.032-.05-.118-.096-.257-.138a1.312 1.312 0 00-.534-.02l-2.399.016a.311.311 0 00-.166.004l-.109.025-.041.021-.034.025a.37.37 0 00-.091.088.569.569 0 00-.083.145 13.603 13.603 0 01-.892 1.875c-.205.344-.394.642-.566.895a4.3 4.3 0 01-.434.558 3.02 3.02 0 01-.316.288c-.095.072-.167.102-.217.091a6.075 6.075 0 01-.141-.033.554.554 0 01-.188-.204.914.914 0 01-.096-.325 3.583 3.583 0 01-.029-.337 7.046 7.046 0 01.005-.4c.005-.173.008-.29.008-.35 0-.211.004-.44.012-.688l.021-.587c.006-.144.008-.297.008-.458 0-.161-.01-.287-.029-.379a1.297 1.297 0 00-.087-.267.449.449 0 00-.17-.2.963.963 0 00-.28-.112 5.543 5.543 0 00-1.125-.108c-1.032-.011-1.696.055-1.99.2a1.122 1.122 0 00-.317.25c-.1.122-.114.188-.042.2.333.05.57.169.708.358l.05.1c.04.072.078.2.117.383.039.183.064.386.075.608.028.405.028.752 0 1.041-.028.289-.054.514-.08.675a1.351 1.351 0 01-.212.575.143.143 0 01-.041.041.624.624 0 01-.225.042c-.078 0-.172-.039-.283-.117a1.999 1.999 0 01-.346-.32 4.288 4.288 0 01-.404-.571 9.956 9.956 0 01-.467-.866l-.133-.242a20.786 20.786 0 01-.341-.679 13.089 13.089 0 01-.384-.862.55.55 0 00-.2-.267l-.041-.025a.884.884 0 00-.325-.125l-2.283.017c-.233 0-.391.053-.475.158l-.033.05A.27.27 0 000 4.197c0 .06.017.136.05.224.333.784.696 1.539 1.087 2.266.392.728.732 1.314 1.02 1.758.29.444.584.864.884 1.258.3.394.498.647.595.758.097.111.174.194.23.25l.208.2c.133.133.329.293.587.479.258.186.544.37.858.55.314.18.679.327 1.095.441.417.114.822.16 1.217.138h.958c.194-.017.341-.078.441-.184l.033-.041a.551.551 0 00.063-.154c.02-.07.03-.146.03-.23a2.746 2.746 0 01.053-.645c.042-.191.089-.336.142-.433a1.064 1.064 0 01.32-.367.556.556 0 01.067-.029c.133-.044.29-.001.471.13.18.13.35.291.508.483.159.191.349.407.57.645.223.24.417.417.584.533l.167.1c.11.067.255.128.433.184.177.055.333.07.466.041l2.133-.033c.21 0 .375-.035.491-.104.117-.07.186-.146.209-.23a.646.646 0 00.004-.283 1.05 1.05 0 00-.059-.22z"/></g></symbol><symbol id="vkontakte" viewBox="0 0 42 42"><path d="M4 0a4 4 0 00-4 4v34a4 4 0 004 4h34a4 4 0 004-4V4a4 4 0 00-4-4H4zm14.644 11.23c1.19-.012 2.353.12 2.92.136 2.104.061 2.475 1.125 2.448 2-.04 1.282-.864 6.703.664 7.232 2.226-1.191 3.72-4.888 4.807-7.232.55-1.185.462-1.244 1.73-1.246l5.035-.008c1.212-.001 1.165-.044 1.553.452.903 1.151-2.85 5.942-4.063 7.267-2.238 2.445-.932 3.391-.572 3.727 1.67 1.557 3.284 3.172 4.286 4.66.798 1.184.468 2.287-.546 2.328l-5.398.223c-1.792.074-4.578-3.137-5.022-3.837-.36-.577-2.093-1.3-2.256.174l-.228 2.059c-.166 1.471-1.252 1.437-2.11 1.474-5.938.255-7.96-2.006-10.951-5.343-2.192-3.1-4.283-6.217-6.017-9.951-.518-1.118-.793-1.938-.864-2.807.873-.682 3.934-.388 5.989-.433.562-.013.941.31 1.238.95 1.158 2.504 2.42 4.962 4.091 7.135.728.67 1.371.916 1.692-.446.187-.017.172-2.274.182-3.976.007-1.169-.13-2.57-2.11-3.217.4-1.05 1.973-1.305 3.502-1.32z"/></symbol><symbol id="warning" viewBox="0 0 16 16"><path d="M14.72 10.65L9.815 2.953a2 2 0 00-.764-.698A2.256 2.256 0 008.003 2c-.368 0-.73.088-1.047.255a2 2 0 00-.765.698L1.28 10.65c-.8 1.271.198 2.85 1.814 2.85h9.796c1.616 0 2.63-1.595 1.83-2.851v.001zM8 11.793a.83.83 0 01-.55-.209.681.681 0 01-.23-.498c0-.386.354-.708.78-.708.426 0 .78.322.762.726.022.368-.353.69-.762.69zm.71-4.574l-.103 1.644c-.017.178-.017.339-.017.515a.512.512 0 01-.18.364.622.622 0 01-.408.149.61.61 0 01-.406-.14.502.502 0 01-.182-.358c-.052-.854-.108-1.691-.16-2.546-.016-.225-.033-.451-.054-.677 0-.37.23-.676.606-.772.373-.08.746.081.906.403a.757.757 0 01.074.354c-.018.358-.055.713-.074 1.065l-.001-.001z"/></symbol><symbol id="whom-1" viewBox="0 0 36 32"><path fill-rule="evenodd" clip-rule="evenodd" d="M11.582 7.8C11.934 4.545 14.712 2 18.1 2s6.166 2.545 6.517 5.8H11.582zm-2.01 0C9.933 3.427 13.619 0 18.1 0c4.481 0 8.168 3.427 8.527 7.8H36V32H0V7.8h9.573zM2 30V9.8h32V30H2z"/></symbol><symbol id="whom-2" viewBox="0 0 39 31"><path fill-rule="evenodd" clip-rule="evenodd" d="M13.334 8.88c0-3.597 2.854-6.48 6.333-6.48C23.147 2.4 26 5.283 26 8.88c0 3.598-2.854 6.48-6.333 6.48-3.48 0-6.333-2.882-6.333-6.48zm-2 .085a4.124 4.124 0 00-4.67 1.249c-1.485 1.803-1.252 4.488.51 5.997l-1.272 1.544c-2.605-2.231-2.94-6.19-.758-8.842a6.078 6.078 0 016.414-1.996C12.428 3.191 15.715.4 19.667.4c3.976 0 7.28 2.826 8.124 6.586a6.073 6.073 0 016.63 1.925c2.18 2.65 1.846 6.607-.758 8.837l-1.271-1.544c1.76-1.508 1.993-4.19.51-5.992a4.118 4.118 0 00-4.904-1.148c-.096 4.58-3.771 8.296-8.331 8.296-4.593 0-8.288-3.769-8.333-8.395zm8.333 13.155c-5.953 0-10.333 3.727-10.333 7.84v1h-2v-1c0-5.651 5.767-9.84 12.333-9.84S32 24.31 32 29.96v1h-2v-1c0-4.113-4.38-7.84-10.333-7.84zm-17 4.44c0-3.324 2.353-5.8 5-5.8h1v-2h-1c-3.98 0-7 3.614-7 7.8v1h2v-1zm34.236 0c0-3.324-2.353-5.8-5-5.8h-1v-2h1c3.98 0 7 3.614 7 7.8v1h-2v-1z"/></symbol><symbol id="worktime" viewBox="0 0 14 14"><path d="M9.555 7.992L7.773 6.655v-2.75a.774.774 0 00-1.545 0v3.138a.78.78 0 00.308.62l2.09 1.568a.774.774 0 10.929-1.239z"/><path d="M7 0C3.14 0 0 3.14 0 7s3.14 7 7 7 7-3.14 7-7-3.14-7-7-7zm0 12.452A5.458 5.458 0 011.548 7 5.458 5.458 0 017 1.548 5.458 5.458 0 0112.452 7 5.456 5.456 0 017 12.452z"/></symbol><symbol id="youtube" viewBox="0 0 128 90.7"><path d="M126.7 19.6s-1.3-8.9-5.1-12.8c-4.9-5.1-10.3-5.2-12.8-5.5C90.9 0 64 0 64 0S37.1 0 19.2 1.3c-2.5.3-8 .3-12.8 5.5-3.8 3.9-5.1 12.8-5.1 12.8S0 30 0 40.4v9.8c0 10.4 1.3 20.9 1.3 20.9S2.5 80 6.4 83.9c4.9 5.1 11.3 5 14.1 5.5 10.2 1 43.5 1.3 43.5 1.3s26.9 0 44.8-1.3c2.5-.3 8-.3 12.8-5.5 3.8-3.9 5.1-12.8 5.1-12.8s1.3-10.4 1.3-20.9v-9.8c0-10.4-1.3-20.8-1.3-20.8zM50.8 62.1V25.9L85.4 44 50.8 62.1z" fill-rule="evenodd" clip-rule="evenodd"/></symbol><symbol id="zen" viewBox="0 0 26 26"><path fill-rule="evenodd" clip-rule="evenodd" d="M12.625.5c-.063 5.067-.408 7.915-2.309 9.816-1.9 1.9-4.749 2.246-9.816 2.31v.749c5.067.063 7.915.409 9.816 2.309 1.9 1.9 2.246 4.749 2.31 9.816h.749c.063-5.067.408-7.915 2.309-9.816 1.9-1.9 4.749-2.246 9.816-2.31v-.749c-5.067-.063-7.915-.408-9.816-2.309-1.9-1.9-2.246-4.749-2.31-9.816h-.749z"/></symbol></svg>