<svg width="63" height="11" fill="none" xmlns="http://www.w3.org/2000/svg"><path fill-rule="evenodd" clip-rule="evenodd" d="M4.212.566c1.17-.182 2.416 0 3.431.644a5.254 5.254 0 012.143 2.595c.198.569.294 1.169.285 1.772v4.387a.472.472 0 01-.128.348.454.454 0 01-.34.14c-1.612 0-3.225.009-4.838 0C2.533 10.391.45 8.601.09 6.346a8.8 8.8 0 01-.096-.92c.058-.61.132-1.23.378-1.796C1.038 2.046 2.53.818 4.207.57l.005-.005zm.283 2.48a2.502 2.502 0 00-1.135.592 2.563 2.563 0 00-.703 1.082 2.501 2.501 0 00.685 2.596 2.55 2.55 0 002.157.61 2.56 2.56 0 001.679-1.098 2.478 2.478 0 00.34-1.932A2.55 2.55 0 004.5 3.05l-.004-.004zM29.217.93a.849.849 0 01.887.306c.122.184.18.406.164.628v7.805a.866.866 0 01-.25.606.837.837 0 01-1.194-.006.866.866 0 01-.245-.609V1.79a.845.845 0 01.167-.55.82.82 0 01.477-.31h-.006zm-9.091.447c.545-.136 1.174.22 1.282.795.133.58-.36 1.158-.927 1.187-.566.094-1.166-.366-1.175-.965-.002-.24.08-.474.229-.66a1.01 1.01 0 01.59-.357zm29.568.014c.525-.155 1.155.128 1.318.677.218.604-.296 1.266-.903 1.293-.538.072-1.12-.332-1.164-.902-.061-.487.294-.946.747-1.068h.002zm-36.707.959c.218-.184.518-.188.788-.188.72.006 1.439-.007 2.158.007.797.016 1.62.287 2.18.883.894.933.886 2.588-.011 3.515-.54.572-1.319.853-2.09.885-.547.016-1.093 0-1.639.011-.01.76.013 1.519-.011 2.279-.027.48-.518.833-.975.743a.814.814 0 01-.504-.274.84.84 0 01-.204-.543V3.074a.866.866 0 01.31-.724h-.002zm1.391 1.299a80.04 80.04 0 000 2.35h1.4c.36 0 .75-.113.992-.397a1.292 1.292 0 00.099-1.438c-.212-.35-.632-.516-1.023-.52-.491 0-.982-.006-1.474 0l.006.005zm21.038-.5a.887.887 0 01.228-.713.859.859 0 01.688-.271c.77 0 1.539-.008 2.308 0 .8.015 1.632.269 2.2.866.901.925.905 2.574.024 3.515-.553.588-1.358.88-2.147.904-.532.01-1.064 0-1.595 0-.028.756.007 1.514-.018 2.272a.86.86 0 01-.27.593.832.832 0 01-1.187-.05.862.862 0 01-.221-.613c-.009-2.17 0-4.34 0-6.51l-.01.007zm1.698.499v2.344c.458.016.917 0 1.375.008.366.006.761-.095 1.014-.38a1.29 1.29 0 00.157-1.381c-.2-.406-.668-.599-1.094-.594h-1.45l-.002.003zm22.243-.772c.339-.51 1.216-.452 1.467.122.147.386.057.813.088 1.219.42.01.84-.019 1.26.016.16.018.31.096.418.219a.676.676 0 01.168.446.685.685 0 01-.155.485.663.663 0 01-.444.238c-.415.028-.83 0-1.244.013 0 .842-.009 1.683 0 2.525a.77.77 0 00.138.484c.099.14.242.243.406.29.39.155.831-.04 1.209.152.46.223.424.997-.02 1.219-.376.2-.814.207-1.228.19-.614-.038-1.264-.222-1.69-.702-.36-.401-.506-.955-.512-1.488V5.636c-.276-.008-.586.027-.819-.16a.712.712 0 01-.258-.545.724.724 0 01.249-.551c.23-.195.547-.152.827-.166.049-.44-.107-.937.147-1.33l-.007-.008zm-39.22 1.232c.497-.162 1.095.233 1.078.781.008 1.59.008 3.181 0 4.774a.846.846 0 01-.21.552.82.82 0 01-.515.274c-.48.084-.976-.318-.958-.821-.011-1.515 0-3.031 0-4.546-.057-.431.166-.919.614-1.014h-.01zm4.476 0c.987-.141 2.06.144 2.775.87.22.243.458.544.382.895a.778.778 0 01-.331.482.754.754 0 01-.569.108c-.305-.03-.456-.33-.679-.501-.663-.549-1.757-.477-2.303.205a1.846 1.846 0 00-.12 2.043c.126.206.297.379.5.506s.432.204.67.225a1.694 1.694 0 001.489-.58.782.782 0 01.868-.243c.436.137.648.74.36 1.113-.707 1.097-2.158 1.457-3.356 1.162-1.03-.244-1.954-1.007-2.307-2.032a3.237 3.237 0 01.257-2.733c.262-.414.61-.765 1.019-1.028.409-.263.87-.431 1.35-.494l-.005.002zm8.063.38c.18-.197.395-.4.677-.409a.747.747 0 01.495.11.77.77 0 01.316.402.799.799 0 01-.23.81c-.527.534-1.062 1.06-1.587 1.595.6.751 1.206 1.487 1.798 2.238a.771.771 0 01.169.604.777.777 0 01-.331.53.788.788 0 01-1.026-.15c-.68-.823-1.355-1.652-2.037-2.473-.172-.215-.36-.444-.378-.732-.008-.252.143-.471.308-.643.607-.628 1.218-1.25 1.82-1.88l.005-.002zm11.744-.365a3.335 3.335 0 00-1.829.921 3.145 3.145 0 00-.907 1.97 3.216 3.216 0 00.732 2.306 3.39 3.39 0 001.295.923 3.34 3.34 0 001.566.225c.488-.03.964-.17 1.394-.408.43-.238.803-.569 1.094-.969a3.141 3.141 0 00-.584-4.254c-.759-.636-1.798-.868-2.756-.714h-.005zm.059 1.565a1.608 1.608 0 011.538.27c.735.584.8 1.817.157 2.496-.681.755-2.07.625-2.553-.291-.505-.86-.131-2.188.858-2.475zm5.298-1.585c.498-.16 1.09.23 1.078.778.005 1.595.005 3.19 0 4.785a.864.864 0 01-.303.632.835.835 0 01-.667.185.814.814 0 01-.513-.273.84.84 0 01-.206-.55V4.883a.821.821 0 01.173-.496.798.798 0 01.435-.284h.003zm2.265.863a.844.844 0 01.194-.598.816.816 0 01.55-.29.828.828 0 01.556.14.852.852 0 01.338.47 2.741 2.741 0 012.397-.54 2.088 2.088 0 011.344 1.024c.226.429.338.91.325 1.395V9.59a.887.887 0 01-.303.723.833.833 0 01-1.279-.243.864.864 0 01-.098-.488V6.78a1.22 1.22 0 00-.447-.988 1.26 1.26 0 00-1.504.062 1.169 1.169 0 00-.385.86c-.013 1.004.011 2.01-.012 3.014-.014.474-.489.829-.938.758a.811.811 0 01-.527-.265.838.838 0 01-.215-.557c-.01-1.56-.002-3.126-.002-4.692l.006-.005z" fill="#3E3E3C"/></svg>